<svg width="65" height="64" viewBox="0 0 65 64" fill="none" xmlns="http://www.w3.org/2000/svg">
<rect x="0.5" width="64" height="64" rx="5" fill="#F7F7F8"/>
<g clip-path="url(#clip0_8_148)">
<path fill-rule="evenodd" clip-rule="evenodd" d="M9.91211 43.7649C9.91211 44.8882 10.3583 45.9654 11.1526 46.7597C11.9469 47.554 13.0241 48.0002 14.1474 48.0002H50.8533C51.9766 48.0002 53.0538 47.554 53.8481 46.7597C54.6424 45.9654 55.0886 44.8882 55.0886 43.7649V26.8237H52.2651V43.7649C52.2651 44.1393 52.1163 44.4984 51.8516 44.7632C51.5868 45.0279 51.2277 45.1767 50.8533 45.1767H14.1474C13.773 45.1767 13.4139 45.0279 13.1491 44.7632C12.8844 44.4984 12.7356 44.1393 12.7356 43.7649V26.8237H9.91211V43.7649Z" fill="black"/>
<path fill-rule="evenodd" clip-rule="evenodd" d="M9.91211 21.1765C9.91211 20.0533 10.3583 18.976 11.1526 18.1817C11.9469 17.3875 13.0241 16.9412 14.1474 16.9412H50.8533C51.9766 16.9412 53.0538 17.3875 53.8481 18.1817C54.6424 18.976 55.0886 20.0533 55.0886 21.1765V27.9078L33.5902 33.6396C32.8761 33.8298 32.1246 33.8298 31.4105 33.6396L9.91211 27.9078V21.1765ZM14.1474 19.7648C13.773 19.7648 13.4139 19.9135 13.1491 20.1783C12.8844 20.443 12.7356 20.8021 12.7356 21.1765V25.7394L32.1361 30.9121C32.3748 30.9758 32.6259 30.9758 32.8646 30.9121L52.2651 25.7394V21.1765C52.2651 20.8021 52.1163 20.443 51.8516 20.1783C51.5868 19.9135 51.2277 19.7648 50.8533 19.7648H14.1474ZM24.0298 15.5295C24.0298 14.4062 24.476 13.329 25.2702 12.5347C26.0645 11.7404 27.1418 11.2942 28.2651 11.2942H36.7356C37.8589 11.2942 38.9362 11.7404 39.7304 12.5347C40.5247 13.329 40.9709 14.4062 40.9709 15.5295V16.9412H38.1474V15.5295C38.1474 15.1551 37.9987 14.796 37.7339 14.5312C37.4692 14.2665 37.1101 14.1177 36.7356 14.1177H28.2651C27.8906 14.1177 27.5315 14.2665 27.2668 14.5312C27.002 14.796 26.8533 15.1551 26.8533 15.5295V16.9412H24.0298V15.5295Z" fill="black"/>
</g>
<defs>
<clipPath id="clip0_8_148">
<rect width="45.1765" height="45.1765" fill="white" transform="translate(9.91211 8.4707)"/>
</clipPath>
</defs>
</svg>
