<svg width="64" height="64" viewBox="0 0 64 64" fill="none" xmlns="http://www.w3.org/2000/svg">
<rect width="64" height="64" rx="5" fill="#F7F7F8"/>
<g clip-path="url(#clip0_8_138)">
<path fill-rule="evenodd" clip-rule="evenodd" d="M18.6711 11.2942C19.034 11.2942 19.382 11.4429 19.6386 11.7077C19.8952 11.9724 20.0394 12.3315 20.0394 12.706V14.1177H41.9326V12.706C41.9326 12.3315 42.0768 11.9724 42.3334 11.7077C42.59 11.4429 42.938 11.2942 43.3009 11.2942C43.6638 11.2942 44.0119 11.4429 44.2685 11.7077C44.5251 11.9724 44.6692 12.3315 44.6692 12.706V14.1177H47.4059C48.8575 14.1177 50.2497 14.7127 51.2761 15.7717C52.3025 16.8307 52.8792 18.2671 52.8792 19.7648V50.8236C52.8792 52.3213 52.3025 53.7576 51.2761 54.8167C50.2497 55.8757 48.8575 56.4707 47.4059 56.4707H14.5661C13.1145 56.4707 11.7223 55.8757 10.6959 54.8167C9.66942 53.7576 9.09277 52.3213 9.09277 50.8236V19.7648C9.09277 18.2671 9.66942 16.8307 10.6959 15.7717C11.7223 14.7127 13.1145 14.1177 14.5661 14.1177H17.3027V12.706C17.3027 12.3315 17.4469 11.9724 17.7035 11.7077C17.9601 11.4429 18.3082 11.2942 18.6711 11.2942V11.2942ZM14.5661 16.9412C13.8403 16.9412 13.1442 17.2387 12.631 17.7682C12.1177 18.2978 11.8294 19.0159 11.8294 19.7648V22.5883H50.1425V19.7648C50.1425 19.0159 49.8542 18.2978 49.341 17.7682C48.8278 17.2387 48.1317 16.9412 47.4059 16.9412H14.5661ZM50.1425 25.4118H11.8294V50.8236C11.8294 51.5724 12.1177 52.2906 12.631 52.8201C13.1442 53.3497 13.8403 53.6471 14.5661 53.6471H47.4059C48.1317 53.6471 48.8278 53.3497 49.341 52.8201C49.8542 52.2906 50.1425 51.5724 50.1425 50.8236V25.4118Z" fill="black"/>
</g>
<defs>
<clipPath id="clip0_8_138">
<rect width="43.7864" height="45.1765" fill="white" transform="translate(9.09277 11.2942)"/>
</clipPath>
</defs>
</svg>
