<svg width="64" height="64" viewBox="0 0 64 64" fill="none" xmlns="http://www.w3.org/2000/svg">
<rect width="64" height="64" rx="5" fill="#F7F7F8"/>
<g clip-path="url(#clip0_8_153)">
<path d="M48.9412 17.8824H12.2354C12.2354 17.1335 12.5328 16.4153 13.0623 15.8858C13.5919 15.3563 14.31 15.0588 15.0589 15.0588H48.9412C49.6901 15.0588 50.4083 15.3563 50.9378 15.8858C51.4673 16.4153 51.7648 17.1335 51.7648 17.8824H48.9412Z" fill="black"/>
<path fill-rule="evenodd" clip-rule="evenodd" d="M51.7651 23.5296H12.2356V46.1178H51.7651V23.5296ZM12.2356 20.7061C11.4868 20.7061 10.7686 21.0035 10.2391 21.533C9.70959 22.0626 9.41211 22.7807 9.41211 23.5296V46.1178C9.41211 46.8667 9.70959 47.5848 10.2391 48.1144C10.7686 48.6439 11.4868 48.9413 12.2356 48.9413H51.7651C52.5139 48.9413 53.2321 48.6439 53.7616 48.1144C54.2911 47.5848 54.5886 46.8667 54.5886 46.1178V23.5296C54.5886 22.7807 54.2911 22.0626 53.7616 21.533C53.2321 21.0035 52.5139 20.7061 51.7651 20.7061H12.2356Z" fill="black"/>
<path d="M46.1177 23.5295C46.1177 25.0272 46.7127 26.4636 47.7717 27.5226C48.8307 28.5816 50.2671 29.1766 51.7648 29.1766V23.5295H46.1177ZM17.8824 23.5295C17.8824 25.0272 17.2875 26.4636 16.2284 27.5226C15.1694 28.5816 13.733 29.1766 12.2354 29.1766V23.5295H17.8824ZM46.1177 46.1178C46.1177 44.6201 46.7127 43.1837 47.7717 42.1247C48.8307 41.0657 50.2671 40.4707 51.7648 40.4707V46.1178H46.1177ZM17.8824 46.1178C17.8824 44.6201 17.2875 43.1837 16.2284 42.1247C15.1694 41.0657 13.733 40.4707 12.2354 40.4707V46.1178H17.8824ZM37.6471 34.8237C37.6471 36.3214 37.0522 37.7577 35.9931 38.8167C34.9341 39.8758 33.4978 40.4707 32.0001 40.4707C30.5024 40.4707 29.066 39.8758 28.007 38.8167C26.948 37.7577 26.353 36.3214 26.353 34.8237C26.353 33.326 26.948 31.8896 28.007 30.8306C29.066 29.7716 30.5024 29.1766 32.0001 29.1766C33.4978 29.1766 34.9341 29.7716 35.9931 30.8306C37.0522 31.8896 37.6471 33.326 37.6471 34.8237Z" fill="black"/>
</g>
<defs>
<clipPath id="clip0_8_153">
<rect width="45.1765" height="45.1765" fill="white" transform="translate(9.41211 9.41187)"/>
</clipPath>
</defs>
</svg>
