<svg width="64" height="64" viewBox="0 0 64 64" fill="none" xmlns="http://www.w3.org/2000/svg">
<rect width="64" height="64" rx="5" fill="#F7F7F8"/>
<g clip-path="url(#clip0_8_143)">
<path fill-rule="evenodd" clip-rule="evenodd" d="M16.4225 42.9949C16.7066 43.2891 16.9242 43.6443 17.06 44.0352C17.1957 44.4261 17.2463 44.8432 17.2079 45.2565C17.0156 47.1697 16.6509 49.0602 16.1187 50.9036C19.9364 49.9916 22.268 48.9356 23.3271 48.3822C23.9278 48.0683 24.6196 47.9939 25.2701 48.1732C27.1349 48.6862 29.057 48.9444 30.987 48.9412C41.9226 48.9412 50.1435 41.0156 50.1435 32.0001C50.1435 22.9874 41.9226 15.0589 30.987 15.0589C20.0513 15.0589 11.8304 22.9874 11.8304 32.0001C11.8304 36.145 13.5189 39.9906 16.4225 42.9949ZM15.0733 54.0208C14.4249 54.1534 13.7744 54.2748 13.1221 54.385C12.5748 54.4754 12.1588 53.8881 12.375 53.3629C12.618 52.7716 12.8407 52.1717 13.0427 51.5643L13.0509 51.5361C13.7296 49.5031 14.2824 47.1652 14.485 44.9883C11.1271 41.5154 9.09375 36.9695 9.09375 32.0001C9.09375 21.0843 18.8964 12.2354 30.987 12.2354C43.0775 12.2354 52.8802 21.0843 52.8802 32.0001C52.8802 42.9158 43.0775 51.7648 30.987 51.7648C28.8186 51.7678 26.6592 51.4773 24.564 50.9008C23.141 51.6434 20.0787 52.9958 15.0733 54.0208Z" fill="black"/>
</g>
<defs>
<clipPath id="clip0_8_143">
<rect width="43.7864" height="45.1765" fill="white" transform="translate(9.09375 9.41187)"/>
</clipPath>
</defs>
</svg>
