<svg width="64" height="64" viewBox="0 0 64 64" fill="none" xmlns="http://www.w3.org/2000/svg">
<rect width="64" height="64" rx="5" fill="#F7F7F8"/>
<g clip-path="url(#clip0_8_128)">
<path fill-rule="evenodd" clip-rule="evenodd" d="M32.0003 51.7648C37.2423 51.7648 42.2695 49.6825 45.9761 45.9759C49.6827 42.2693 51.7651 37.242 51.7651 32.0001C51.7651 26.7582 49.6827 21.7309 45.9761 18.0243C42.2695 14.3177 37.2423 12.2354 32.0003 12.2354C26.7584 12.2354 21.7312 14.3177 18.0246 18.0243C14.318 21.7309 12.2356 26.7582 12.2356 32.0001C12.2356 37.242 14.318 42.2693 18.0246 45.9759C21.7312 49.6825 26.7584 51.7648 32.0003 51.7648ZM54.5886 32.0001C54.5886 37.9909 52.2088 43.7363 47.9726 47.9724C43.7365 52.2085 37.9911 54.5883 32.0003 54.5883C26.0096 54.5883 20.2642 52.2085 16.0281 47.9724C11.7919 43.7363 9.41211 37.9909 9.41211 32.0001C9.41211 26.0093 11.7919 20.2639 16.0281 16.0278C20.2642 11.7917 26.0096 9.41187 32.0003 9.41187C37.9911 9.41187 43.7365 11.7917 47.9726 16.0278C52.2088 20.2639 54.5886 26.0093 54.5886 32.0001Z" fill="black"/>
<path fill-rule="evenodd" clip-rule="evenodd" d="M30.5885 17.8826C30.9629 17.8826 31.322 18.0313 31.5868 18.2961C31.8515 18.5608 32.0003 18.9199 32.0003 19.2943V34.0049L41.1711 39.2454C41.4868 39.4358 41.7154 39.7421 41.8082 40.0989C41.901 40.4557 41.8505 40.8346 41.6676 41.1547C41.4847 41.4747 41.1839 41.7106 40.8294 41.8118C40.4749 41.913 40.0949 41.8715 39.7706 41.6962L29.8883 36.0492C29.6722 35.9257 29.4926 35.7474 29.3676 35.5322C29.2427 35.317 29.1768 35.0726 29.1768 34.8237V19.2943C29.1768 18.9199 29.3255 18.5608 29.5903 18.2961C29.855 18.0313 30.2141 17.8826 30.5885 17.8826Z" fill="black"/>
</g>
<defs>
<clipPath id="clip0_8_128">
<rect width="45.1765" height="45.1765" fill="white" transform="translate(9.41211 9.41187)"/>
</clipPath>
</defs>
</svg>
