<svg width="126" height="120" viewBox="0 0 126 120" fill="none" xmlns="http://www.w3.org/2000/svg">
<path d="M123.074 74.2407H86.8663C80.4248 69.3671 61.7153 65.0946 58.3652 64.351V60.3787C61.8283 58.053 64.9183 54.4921 67.2265 49.9828C67.3572 50.1404 67.5619 50.2516 67.8035 50.2993C67.989 50.3313 68.1567 50.3464 68.3429 50.3464C70.3903 50.3464 72.3823 48.4002 73.1086 45.5677C73.5926 43.6528 73.3509 41.8165 72.4392 40.647C71.9552 40.014 71.2843 39.6183 70.5218 39.4921C70.2987 39.4601 70.0755 39.4921 69.8886 39.5875C71.1358 31.2956 71.6383 24.0958 66.8356 22.6243C62.8332 14.9497 54.2882 11.6588 43.3234 13.6044C42.6163 13.7301 25.8057 16.8633 27.0706 32.308C27.2568 34.6022 27.5546 36.8807 27.9455 39.1278C27.8288 39.0074 27.6728 38.9191 27.4971 38.874C27.3214 38.829 27.1339 38.8292 26.9584 38.8747C26.2143 39.0644 25.6003 39.5078 25.1895 40.1722C24.4263 41.4057 24.39 43.2578 25.0971 45.1249C26.102 47.7677 28.1686 49.5237 30.1414 49.5237C30.4022 49.5237 30.663 49.4917 30.9231 49.4283C30.9793 49.4126 31.0162 49.3811 31.0539 49.3648C33.0643 53.2888 35.8743 57.1343 39.3565 59.8248V64.2712C33.3067 65.4582 10.3524 70.2212 5.30739 75.3642C-1.89657 82.6909 0.336324 105.272 0.448608 106.237C0.486273 106.648 0.895613 106.965 1.37957 106.965H50.0619C50.1543 106.965 50.2296 106.949 50.3042 106.918H115.629C116.987 106.918 118.142 106.127 118.458 105.003L125.905 77.2634C126.006 76.9021 126.009 76.5259 125.912 76.1637C125.815 75.8015 125.621 75.4631 125.346 75.1745C124.771 74.5886 123.951 74.2413 123.077 74.2413L123.074 74.2407ZM51.8499 99.0356C55.3123 91.7874 57.4528 85.2376 58.4022 79.0653C61.0089 75.0308 62.0514 70.2043 62.4793 66.9605C63.5218 67.2136 64.6766 67.5144 65.9231 67.8467C65.9416 67.8618 65.9416 67.8938 65.9608 67.9101C67.8774 70.0147 69.9071 73.4644 71.6944 77.7056L65.5699 78.338C65.4332 78.352 65.3019 78.392 65.1859 78.455C65.0698 78.5181 64.972 78.6026 64.8998 78.7023C64.8261 78.7998 64.7795 78.9103 64.7635 79.0254C64.7475 79.1406 64.7625 79.2573 64.8074 79.3667L67.3579 86.0446C64.4911 90.9025 61.7167 95.0481 58.7007 99.0198H51.8499V99.0356ZM48.6655 99.0356C48.4046 99.0356 48.1623 99.067 47.9207 99.131C44.9416 92.9756 42.9319 87.3736 41.777 82.1043C42.0556 82.3725 42.3356 82.6425 42.6334 82.895C42.8011 83.0376 43.0427 83.1161 43.2851 83.1161H43.3597C43.6205 83.101 43.8813 82.9899 44.0298 82.7996L48.8509 77.3721L53.692 82.8002C53.8597 82.9899 54.1013 83.1004 54.3614 83.1173H54.436C54.6791 83.1173 54.92 83.0382 55.0877 82.8957C55.4039 82.6268 55.6647 82.3097 55.9625 82.0246C54.8276 87.3095 52.7979 92.9116 49.838 99.0519H48.6655V99.0356ZM44.1975 105.366C39.3757 99.8589 34.6107 93.2124 30.4029 86.076L32.9535 79.3987C33.0459 79.177 33.0089 78.924 32.8611 78.7343C32.789 78.6345 32.6913 78.5499 32.5752 78.4868C32.4591 78.4237 32.3278 78.3838 32.1909 78.37L26.0665 77.737C27.7607 73.7967 30.0881 69.9355 32.1355 67.7204C32.2279 67.625 32.2656 67.5144 32.3032 67.4033C33.2875 67.1798 34.2739 66.9633 35.2624 66.7539C35.6355 69.587 36.6411 74.7457 39.3395 79.0182C40.3266 85.4587 42.6348 92.3583 46.3764 100.064C46.0225 100.476 45.7994 100.982 45.7994 101.519V104.463C45.7994 104.78 45.874 105.096 46.0047 105.381H44.1975V105.366ZM39.5811 65.8533C40.6982 69.8093 43.3796 73.2911 47.5867 76.1863L43.2303 81.0913C42.4486 80.3314 41.7415 79.4302 41.0898 78.4335C41.0571 78.3347 40.9999 78.243 40.9221 78.1646C39.0047 75.0948 37.6644 71.012 37.0881 66.3601C37.9245 66.1855 38.7439 66.0121 39.5811 65.8533ZM58.1414 65.9487C58.7 66.075 59.5748 66.281 60.6728 66.5347C60.1142 71.0923 58.7739 75.0948 56.875 78.1338C56.7819 78.2293 56.7073 78.3398 56.6519 78.4661C56.0002 79.4477 55.2931 80.3338 54.5113 81.0925L50.155 76.1876C54.3429 73.3231 57.0058 69.8727 58.1414 65.9487ZM69.1808 86.488C69.2931 86.2983 69.3108 86.0923 69.2362 85.887L66.9088 79.8107L73.0709 79.1613C73.3495 79.1293 73.5919 79.0037 73.7404 78.7971C73.8889 78.5911 73.9259 78.3386 73.8335 78.1175C72.884 75.775 71.0967 71.7719 68.7885 68.6392C74.0936 70.1578 80.0518 72.1198 83.8119 74.2244H78.6176C77.2766 74.2244 76.0856 75.0314 75.7878 76.1392L69.6441 99.0198H60.8938C63.7627 95.2064 66.4256 91.1876 69.1808 86.488ZM69.6839 40.8222C69.814 40.9327 69.9625 41.0119 70.1302 41.0433C70.391 41.091 70.6334 41.2499 70.8565 41.5181C71.4705 42.3094 71.6382 43.7652 71.2659 45.2373C70.7066 47.4524 69.1623 48.9088 68.156 48.7499C68.0449 48.7345 67.9317 48.7345 67.8206 48.7499C68.1627 48.0247 68.4795 47.291 68.7707 46.5499C68.7707 46.5342 68.7707 46.5028 68.7885 46.4865C68.7885 46.4545 68.807 46.4394 68.8262 46.4074C68.9747 45.3949 69.1424 44.3662 69.3101 43.3532C69.4231 42.5142 69.5532 41.66 69.6839 40.8222ZM43.6951 15.1557C54.0089 13.3193 61.6783 16.3106 65.2906 23.5739C65.4029 23.7955 65.6261 23.9695 65.9046 24.0323C70.3356 25.0139 68.7906 34.6505 67.4311 43.1472C67.3189 43.9071 67.1888 44.6658 67.0772 45.4094C66.6645 45.2873 66.2981 45.0729 66.0164 44.789C65.7347 44.505 65.5481 44.1618 65.4761 43.7954C64.9737 41.2161 64.6013 38.7473 65.5138 37.1326C65.9977 36.2628 65.7561 35.2032 64.8998 34.4276C63.4479 33.0987 62.927 30.9772 63.3363 27.9243C63.3542 27.7707 63.3197 27.616 63.237 27.4786C63.1544 27.3412 63.027 27.2269 62.8701 27.1493C62.7216 27.0853 62.5717 27.0381 62.4046 27.0381C62.1993 27.0381 62.0138 27.1016 61.8461 27.1964C53.8042 32.4336 44.8862 33.5572 35.3541 30.5508C34.9632 30.4251 34.5354 30.5357 34.2746 30.8196C32.4127 32.9398 31.0169 37.6551 30.1975 41.1526C29.5953 38.187 29.1665 35.1979 28.9127 32.1962C27.7593 18.1143 43.0441 15.2662 43.6951 15.1557ZM26.8667 44.6501C26.3266 43.2258 26.3074 41.7537 26.829 40.9158C27.0145 40.6307 27.2199 40.4574 27.48 40.3939C27.7785 40.3154 27.9831 40.1251 28.0762 39.8871C28.4265 41.8075 28.8486 43.7179 29.3419 45.6154C29.3419 45.6305 29.3604 45.6305 29.3604 45.6468V45.6789C29.639 46.4218 29.9744 47.1661 30.3276 47.926C29.3419 48.1156 27.6854 46.7861 26.8667 44.6501ZM31.2216 45.3466C31.4646 44.0328 33.0281 35.5989 35.3918 32.2596C44.663 35.0136 53.375 34.0791 61.3429 29.4749C61.2676 32.1328 61.9939 34.1111 63.5396 35.5192C63.8004 35.7559 64.0235 36.1365 63.838 36.4687C62.7024 38.4942 63.0933 41.2167 63.6519 44.0648C63.9304 45.4723 65.1037 46.5487 66.6494 46.9444C63.6703 54.0179 57.4712 61.8502 49.1125 61.8502C40.6606 61.8351 34.2192 52.9904 31.2216 45.3466ZM49.0933 63.4171C51.6246 63.4171 54.1382 62.7526 56.5033 61.5022V64.9526C55.5724 68.8138 53.0026 72.2001 48.8708 75.0163C44.7184 72.1838 42.1316 68.7818 41.2199 64.9055V61.0921C43.6027 62.5309 46.2258 63.4171 49.0933 63.4171ZM6.74079 76.3772C9.51449 73.5611 19.3074 70.4749 29.5821 68.0219C27.5532 70.6332 25.4304 74.3995 23.9238 78.1332C23.8307 78.3549 23.8677 78.608 24.0162 78.8134C24.1655 79.0194 24.4071 79.1456 24.6864 79.1777L30.8478 79.8264L28.5211 85.9033C28.4458 86.0929 28.465 86.3146 28.5765 86.5043C32.6529 93.4353 37.2331 99.9229 41.905 105.382H21.4664L22.7505 93.9101C22.7621 93.8072 22.7495 93.7034 22.7136 93.6047C22.6777 93.5059 22.6191 93.4142 22.5413 93.3348C22.4635 93.2554 22.3679 93.1899 22.2601 93.142C22.1524 93.0941 22.0345 93.0649 21.9134 93.056C21.3925 93.0239 20.9455 93.3411 20.9085 93.7675L19.6052 105.382H2.23592C1.90049 101.426 0.70942 82.5018 6.7415 76.3784L6.74079 76.3772ZM116.632 104.638C116.579 104.831 116.451 105.003 116.269 105.126C116.087 105.25 115.861 105.317 115.627 105.318L48.6655 105.318C48.3946 105.316 48.1355 105.224 47.944 105.061C47.7525 104.898 47.6438 104.678 47.6414 104.448V101.504C47.6414 101.014 48.1069 100.618 48.6647 100.618H70.3719C70.7997 100.618 71.1912 100.365 71.2836 100.001L77.5943 76.5029C77.7073 76.1235 78.1344 75.8233 78.6006 75.8233H123.075C123.391 75.8233 123.671 75.9496 123.857 76.1555C124.062 76.3615 124.135 76.6454 124.062 76.8991L116.632 104.638Z" fill="white" fill-opacity="0.5"/>
<path d="M98.2213 87.0427C95.9685 87.0427 93.9211 88.5462 93.548 90.4448C93.3625 91.3944 93.6603 92.3434 94.3482 93.0392C95.0375 93.7357 96.0424 94.1151 97.178 94.1151C99.3932 94.1151 101.497 92.5801 101.851 90.6973C102.037 89.7157 101.758 88.7987 101.051 88.1022C100.363 87.4221 99.3576 87.0427 98.2213 87.0427ZM100.009 90.4448C99.7862 91.5677 98.5013 92.5336 97.1802 92.5336C96.6031 92.5336 96.1 92.344 95.7837 92.0268C95.4483 91.6795 95.2998 91.2198 95.4113 90.7136C95.6345 89.5586 96.9002 88.6241 98.2405 88.6241C98.8175 88.6241 99.3207 88.7987 99.6561 89.131C99.9716 89.4795 100.102 89.938 100.009 90.4448ZM123.465 37.0718H87.221C86.5594 37.0718 85.925 37.2952 85.4572 37.6928C84.9894 38.0904 84.7266 38.6297 84.7266 39.192V60.2212C84.7266 60.7835 84.9894 61.3228 85.4572 61.7204C85.925 62.1181 86.5594 62.3415 87.221 62.3415H90.7586L94.6303 67.8004C94.7811 68.0178 94.9962 68.198 95.2543 68.3229C95.5124 68.4479 95.8044 68.5132 96.1014 68.5125C96.7154 68.5125 97.2555 68.2437 97.5717 67.8161L101.444 62.3566H123.467C123.795 62.3566 124.119 62.3017 124.422 62.1952C124.725 62.0886 124.999 61.9324 125.231 61.7355C125.463 61.5386 125.646 61.3049 125.772 61.0476C125.897 60.7904 125.961 60.5147 125.961 60.2363V39.1926C125.961 38.9141 125.897 38.6384 125.771 38.3811C125.646 38.1238 125.462 37.8901 125.23 37.6932C124.999 37.4963 124.724 37.3401 124.421 37.2336C124.118 37.1271 123.794 37.0723 123.466 37.0724L123.465 37.0718ZM124.099 60.2224C124.099 60.2933 124.083 60.3636 124.052 60.4292C124.02 60.4948 123.973 60.5544 123.914 60.6045C123.855 60.6546 123.785 60.6942 123.708 60.721C123.631 60.7478 123.548 60.7613 123.465 60.7606L100.921 60.76C100.586 60.76 100.288 60.9026 100.122 61.1394L96.1 66.8049L92.0783 61.1394C91.9954 61.0224 91.8779 60.9258 91.7376 60.8593C91.5972 60.7927 91.4388 60.7585 91.2781 60.76H87.2196C87.1361 60.7607 87.0534 60.7472 86.9762 60.7203C86.899 60.6935 86.8288 60.6538 86.7699 60.6036C86.7109 60.5534 86.6643 60.4938 86.6328 60.4281C86.6013 60.3625 86.5855 60.2921 86.5864 60.2212V39.192C86.5864 38.8912 86.8649 38.6532 87.2196 38.6532H123.464C123.817 38.6532 124.097 38.8906 124.097 39.192L124.099 60.2224Z" fill="white" fill-opacity="0.5"/>
<path d="M100.046 46.8193C99.7104 46.4871 99.1341 46.4237 98.7432 46.7088L94.2007 49.8577C93.9768 49.9997 93.8652 50.2371 93.8652 50.4751C93.8652 50.7119 93.9953 50.933 94.2007 51.0924L98.7432 54.2408C98.9109 54.3671 99.1156 54.4148 99.3387 54.4148C99.618 54.4148 99.8781 54.3199 100.065 54.1297C100.381 53.7974 100.326 53.2912 99.935 53.0224L96.2865 50.4902L99.935 47.958C100.307 47.6584 100.362 47.1522 100.046 46.8193ZM111.979 46.7082C111.588 46.4231 110.992 46.4865 110.676 46.8187C110.36 47.151 110.416 47.6578 110.807 47.9266L114.455 50.4588L110.807 52.991C110.416 53.2598 110.34 53.766 110.676 54.0983C110.862 54.2879 111.123 54.3834 111.402 54.3834C111.608 54.3834 111.812 54.3199 111.998 54.2094L116.541 51.0604C116.764 50.9179 116.876 50.6811 116.876 50.4431C116.876 50.2063 116.746 49.9846 116.541 49.8257L111.979 46.7082ZM109.094 43.654C108.628 43.4795 108.07 43.654 107.866 44.0497L101.145 57.0092C101.082 57.1298 101.055 57.2619 101.068 57.3935C101.08 57.5251 101.132 57.6519 101.217 57.7622C101.302 57.8726 101.419 57.9629 101.556 58.0249C101.693 58.0869 101.846 58.1186 102.002 58.1171C102.355 58.1171 102.709 57.9425 102.859 57.6423L109.579 44.6828C109.67 44.4913 109.67 44.2772 109.58 44.0854C109.49 43.8936 109.316 43.739 109.094 43.654Z" fill="white" fill-opacity="0.5"/>
</svg>
