<svg width="609" height="564" viewBox="0 0 609 564" fill="none" xmlns="http://www.w3.org/2000/svg">
<g clip-path="url(#clip0_8_1401)">
<path d="M388.778 314.959H589.278V7.90347H388.778V314.959ZM594.979 320.801H383.077V2.06195H594.979V320.801Z" fill="#E7E8E5"/>
<path d="M491.794 317.88H486.094V9.42972H491.794V317.88Z" fill="#E7E8E5"/>
<path d="M600.146 22.0049H377.908V13.8706H600.146V22.0049Z" fill="#E7E8E5"/>
<path d="M600.146 31.1558H377.908V23.0214H600.146V31.1558Z" fill="#E7E8E5"/>
<path d="M600.146 40.3066H377.908V32.1738H600.146V40.3066Z" fill="#E7E8E5"/>
<path d="M600.146 49.4587H377.908V41.3244H600.146V49.4587Z" fill="#E7E8E5"/>
<path d="M600.146 58.6096H377.908V50.4753H600.146V58.6096Z" fill="#E7E8E5"/>
<path d="M600.146 67.7617H377.908V59.6259H600.146V67.7617Z" fill="#E7E8E5"/>
<path d="M600.146 76.9126H377.908V68.7783H600.146V76.9126Z" fill="#E7E8E5"/>
<path d="M600.146 86.0632H377.908V77.9289H600.146V86.0632Z" fill="#E7E8E5"/>
<path d="M600.146 95.2141H377.908V87.0812H600.146V95.2141Z" fill="#E7E8E5"/>
<path d="M583.216 199.716H581.791V12.2204H583.216V199.716Z" fill="#17282F"/>
<path d="M585.037 206.519H579.978L581.246 199.071H583.767L585.037 206.519Z" fill="#17282F"/>
<path d="M588.353 268.856H586.928V12.2204H588.353V268.856Z" fill="#17282F"/>
<path d="M590.169 274.333H585.111L586.378 266.884H588.902L590.169 274.333Z" fill="#17282F"/>
<path d="M608.993 17.938H369.062V0.920139H608.993V17.938Z" fill="#D4D6D3"/>
<path d="M35.984 167.967C35.984 166.748 36.1426 163.491 36.1426 162.108C36.1426 156.165 34.0774 153.479 28.6765 153.315C26.1336 153.153 24.625 151.607 24.625 149.409C24.625 147.211 26.1336 145.665 28.6765 145.502C34.0774 145.259 36.1426 142.653 36.1426 136.629C36.1426 135.245 35.984 131.989 35.984 130.769C35.984 122.872 39.2405 117.824 51.5532 115.058C54.0147 114.487 55.9214 116.035 55.9214 118.395C55.9214 120.349 54.6505 121.408 53.6975 121.732C45.993 124.174 44.8797 126.698 44.8797 132.233C44.8797 133.862 45.0401 136.547 45.0401 138.257C45.0401 144.607 42.0211 147.7 36.7772 149.409C42.1008 151.199 45.0401 154.212 45.0401 160.56C45.0401 162.271 44.8797 164.956 44.8797 166.584C44.8797 172.119 45.993 174.644 53.6975 177.086C54.6505 177.41 55.9214 178.469 55.9214 180.423C55.9214 182.785 54.0147 184.331 51.5532 183.762C39.2405 180.993 35.984 175.946 35.984 167.967Z" fill="#E7E8E5"/>
<path d="M82.5322 130.769C82.5322 131.989 82.3735 135.245 82.3735 136.629C82.3735 142.653 84.5178 145.259 89.9203 145.502C92.3826 145.665 93.8924 147.211 93.8924 149.409C93.8924 151.607 92.3826 153.153 89.9203 153.315C84.5178 153.479 82.3735 156.165 82.3735 162.108C82.3735 163.491 82.5322 166.748 82.5322 167.967C82.5322 175.946 79.275 180.993 66.9631 183.762C64.5008 184.331 62.5947 182.785 62.5947 180.423C62.5947 178.469 63.8651 177.41 64.8978 177.086C72.5242 174.644 73.6365 172.119 73.6365 166.584C73.6365 164.956 73.4779 162.271 73.4779 160.56C73.4779 154.212 76.4961 151.118 81.7383 149.409C76.4154 147.619 73.4779 144.607 73.4779 138.257C73.4779 136.547 73.6365 133.862 73.6365 132.233C73.6365 126.698 72.5242 124.174 64.8978 121.732C63.8651 121.408 62.5947 120.349 62.5947 118.395C62.5947 116.035 64.5008 114.487 66.9631 115.058C79.275 117.824 82.5322 122.872 82.5322 130.769Z" fill="#E7E8E5"/>
<path d="M246.325 54.3497C248.172 56.3198 248.172 59.2741 246.325 61.1697C245.363 62.0781 244.253 62.5322 243.071 62.5322C241.814 62.5322 240.63 62.0781 239.669 61.1697L218.893 39.5735C218.671 39.4976 218.598 39.3472 218.522 39.1194L218.302 38.9675C218.153 38.7397 218.153 38.5892 218.079 38.3614C217.932 38.2855 217.857 38.1336 217.857 38.0592C217.784 37.9073 217.784 37.6794 217.71 37.6035C217.71 37.3771 217.562 37.2997 217.562 37.2238C217.562 36.9974 217.562 36.8456 217.562 36.6951C217.562 36.5433 217.489 36.4673 217.489 36.2395L217.562 35.8613C217.562 35.7094 217.562 35.483 217.562 35.3311C217.562 35.1793 217.71 35.1033 217.71 35.0274C217.784 34.7996 217.784 34.6491 217.857 34.4213L217.932 34.2709C218.079 34.0431 218.153 33.7408 218.302 33.5874C218.302 33.5874 218.302 33.437 218.45 33.437C218.522 33.2866 218.671 33.0588 218.893 32.9055L239.669 11.3122C241.518 9.49404 244.548 9.49404 246.325 11.3122C248.172 13.2063 248.172 16.2366 246.325 18.1307L228.8 36.2395L246.325 54.3497Z" fill="#E7E8E5"/>
<path d="M265.178 56.7754L283.292 12.6003C284.181 10.4798 286.547 9.49403 288.69 10.4024C290.685 11.2377 291.646 13.7365 290.759 15.7825L272.645 60.0321C271.981 61.6239 270.428 62.5322 268.874 62.5322C268.43 62.5322 267.84 62.4578 267.396 62.23C265.252 61.3961 264.291 58.8959 265.178 56.7754Z" fill="#E7E8E5"/>
<path d="M326.545 38.9675L326.471 39.0434C326.322 39.1953 326.176 39.4217 325.953 39.5735L305.177 61.1697C304.29 62.0781 303.032 62.5322 301.851 62.5322C300.594 62.5322 299.485 62.0781 298.523 61.1697C296.675 59.2741 296.675 56.3198 298.523 54.3497L316.047 36.2395L298.523 18.1307C296.675 16.2366 296.675 13.2063 298.523 11.3122C300.296 9.49404 303.33 9.49404 305.177 11.3122L325.953 32.9055C326.176 33.0588 326.322 33.2866 326.471 33.437L326.545 33.5874C326.693 33.8912 326.841 34.0431 326.915 34.2709L326.989 34.4213C327.062 34.6491 327.062 34.7996 327.212 35.1033C327.212 35.1793 327.286 35.1793 327.286 35.3311C327.286 35.483 327.286 35.7094 327.286 35.8613L327.357 36.2395L327.286 36.6192C327.286 36.8456 327.286 36.9974 327.286 37.2238L327.212 37.3771C327.062 37.6794 327.062 37.9073 326.989 38.0592C326.989 38.1336 326.915 38.1336 326.915 38.2855C326.841 38.4374 326.693 38.6637 326.545 38.9675Z" fill="#E7E8E5"/>
<path d="M585.428 540.54C585.428 553.497 456.839 563.998 298.214 563.998C139.591 563.998 11.001 553.497 11.001 540.54C11.001 527.584 139.591 517.081 298.214 517.081C456.839 517.081 585.428 527.584 585.428 540.54Z" fill="#E7E8E5"/>
<path d="M569.039 512.156H396.432L430.848 307.002H559.919L569.039 512.156Z" fill="#D4D6D3"/>
<path d="M569.039 512.156H553.905L545.411 307.002H559.919L569.039 512.156Z" fill="#999B9B"/>
<path d="M0 512.158L74.5535 511.803L149.108 511.674L298.214 511.429L447.321 511.673L521.874 511.8L596.428 512.158L521.874 512.516L447.321 512.644L298.214 512.886L149.108 512.641L74.5535 512.513L0 512.158Z" fill="#17282F"/>
<path d="M162.026 0.919998V93.501H20.3994V0.919998H162.026Z" fill="white"/>
<path d="M21.2943 92.584H161.131V1.83723H21.2943V92.584ZM162.921 94.4197H19.5039V0.00299072H162.921V94.4197Z" fill="#E7E8E5"/>
<path d="M162.026 0.920193V18.4287H20.3994V0.920193H162.026Z" fill="#FABB1E"/>
<path d="M21.2943 17.5115H161.131V1.83719H21.2943V17.5115ZM162.921 19.3472H19.5039V0.00293922H162.921V19.3472Z" fill="#E7E8E5"/>
<path d="M36.4376 9.80204C36.4376 12.235 34.5121 14.208 32.1373 14.208C29.7625 14.208 27.8369 12.235 27.8369 9.80204C27.8369 7.36758 29.7625 5.39458 32.1373 5.39458C34.5121 5.39458 36.4376 7.36758 36.4376 9.80204Z" fill="#999B9B"/>
<path d="M53.9961 9.80204C53.9961 12.235 52.0716 14.208 49.6968 14.208C47.3215 14.208 45.3965 12.235 45.3965 9.80204C45.3965 7.36758 47.3215 5.39458 49.6968 5.39458C52.0716 5.39458 53.9961 7.36758 53.9961 9.80204Z" fill="#E7E8E5"/>
<path d="M71.5551 9.80204C71.5551 12.235 69.6297 14.208 67.2549 14.208C64.8801 14.208 62.9551 12.235 62.9551 9.80204C62.9551 7.36758 64.8801 5.39458 67.2549 5.39458C69.6297 5.39458 71.5551 7.36758 71.5551 9.80204Z" fill="white"/>
<path d="M44.8428 53.047C44.8901 43.3924 52.79 35.54 62.3057 35.4932C66.4948 35.4932 70.3008 36.9069 73.2985 39.2961C74.4401 40.2716 74.6311 41.9788 73.7745 43.1968C72.8237 44.4162 71.0628 44.6119 69.9685 43.7342C67.8736 41.9788 65.2567 41.0515 62.3057 41.0515C59.0225 41.0515 55.9769 42.4169 53.7412 44.5622C51.5991 46.8053 50.2675 49.732 50.2675 53.047C50.2675 56.3636 51.5991 59.3866 53.7412 61.5333C55.9769 63.6786 59.0225 65.0441 62.3057 65.0441C65.2567 65.0441 67.8268 64.1167 69.9685 62.3614C71.0628 61.5333 72.8237 61.7275 73.7745 62.8973C74.6311 64.1167 74.4401 65.8721 73.2985 66.7995C70.3008 69.1886 66.4948 70.6023 62.3057 70.6023C52.79 70.6023 44.8901 62.7513 44.8428 53.047Z" fill="#E7E8E5"/>
<path d="M81.9577 62.1173C82.8145 61.0439 84.3849 60.8979 85.4314 61.7756C87.5246 63.5324 91.1419 65.5799 94.5192 65.5302C96.8984 65.5302 99.0406 64.7986 100.469 63.7267C101.895 62.6533 102.514 61.4353 102.514 60.2159C102.514 59.5806 102.373 59.1425 102.086 58.6547C101.801 58.167 101.373 57.6792 100.659 57.1915C99.2783 56.2656 96.948 55.436 94.1401 54.9001H94.0444C91.8077 54.462 89.7128 53.8764 87.9059 52.9987C86.0983 52.121 84.5263 50.9016 83.4814 49.1944C82.7655 48.0246 82.3864 46.6591 82.3864 45.1958C82.3864 42.2707 84.0036 39.734 86.1918 38.0765C88.4286 36.4189 91.3323 35.4931 94.4246 35.4931C98.9933 35.4931 102.373 37.7844 104.799 39.3937C105.894 40.1736 106.226 41.7333 105.465 42.8563C104.75 44.0261 103.227 44.3678 102.086 43.5865C99.659 41.929 97.3271 40.4657 94.4246 40.4657C92.2837 40.4657 90.3797 41.1491 89.0944 42.1232C87.8113 43.0987 87.2869 44.1721 87.2869 45.1958C87.2869 45.7815 87.3826 46.1714 87.6209 46.5613C87.8586 46.9512 88.2867 47.3908 88.9056 47.8304C90.1415 48.7081 92.2837 49.4879 94.8532 49.9757H94.9479C97.3761 50.462 99.6122 51.0973 101.516 52.0231C103.467 52.9987 105.178 54.2663 106.273 56.0713C106.988 57.2411 107.416 58.7029 107.416 60.2159C107.416 63.3367 105.703 66.018 103.324 67.7748C100.992 69.5288 97.8982 70.554 94.5192 70.554C89.381 70.5043 85.0513 67.8712 82.3375 65.6777C81.2921 64.7986 81.149 63.1907 81.9577 62.1173Z" fill="#E7E8E5"/>
<path d="M113.221 62.1173C114.077 61.0439 115.648 60.8979 116.694 61.7756C118.788 63.5324 122.405 65.5799 125.782 65.5302C128.161 65.5302 130.303 64.7986 131.731 63.7267C133.158 62.6533 133.777 61.4353 133.777 60.2159C133.777 59.5806 133.636 59.1425 133.349 58.6547C133.064 58.167 132.635 57.6792 131.922 57.1915C130.541 56.2656 128.21 55.436 125.403 54.9001H125.307C123.071 54.462 120.976 53.8764 119.169 52.9987C117.361 52.121 115.789 50.9016 114.744 49.1944C114.029 48.0246 113.649 46.6591 113.649 45.1958C113.649 42.2707 115.267 39.734 117.455 38.0765C119.692 36.4189 122.595 35.4931 125.688 35.4931C130.256 35.4931 133.636 37.7844 136.062 39.3937C137.157 40.1736 137.489 41.7333 136.728 42.8563C136.012 44.0261 134.49 44.3678 133.349 43.5865C130.922 41.929 128.59 40.4657 125.688 40.4657C123.547 40.4657 121.642 41.1491 120.357 42.1232C119.074 43.0987 118.549 44.1721 118.549 45.1958C118.549 45.7815 118.646 46.1714 118.884 46.5613C119.122 46.9512 119.55 47.3908 120.169 47.8304C121.404 48.7081 123.547 49.4879 126.116 49.9757H126.211C128.638 50.462 130.875 51.0973 132.779 52.0231C134.729 52.9987 136.441 54.2663 137.536 56.0713C138.25 57.2411 138.679 58.7029 138.679 60.2159C138.679 63.3367 136.966 66.018 134.586 67.7748C132.254 69.5288 129.161 70.554 125.782 70.554C120.644 70.5043 116.314 67.8712 113.6 65.6777C112.555 64.7986 112.411 63.1907 113.221 62.1173Z" fill="#E7E8E5"/>
<path d="M395.951 265.807V358.388H254.325V265.807H395.951Z" fill="white"/>
<path d="M255.221 357.471H395.057V266.726H255.221V357.471ZM396.846 359.305H253.431V264.89H396.846V359.305Z" fill="#E7E8E5"/>
<path d="M395.951 265.807V283.316H254.325V265.807H395.951Z" fill="#FABB1E"/>
<path d="M255.221 282.399H395.057V266.726H255.221V282.399ZM396.846 284.233H253.431V264.89H396.846V284.233Z" fill="#E7E8E5"/>
<path d="M270.363 274.689C270.363 277.122 268.438 279.095 266.064 279.095C263.688 279.095 261.763 277.122 261.763 274.689C261.763 272.255 263.688 270.283 266.064 270.283C268.438 270.283 270.363 272.255 270.363 274.689Z" fill="#999B9B"/>
<path d="M287.922 274.689C287.922 277.122 285.996 279.095 283.621 279.095C281.247 279.095 279.321 277.122 279.321 274.689C279.321 272.255 281.247 270.283 283.621 270.283C285.996 270.283 287.922 272.255 287.922 274.689Z" fill="#E7E8E5"/>
<path d="M305.48 274.689C305.48 277.122 303.555 279.095 301.181 279.095C298.805 279.095 296.88 277.122 296.88 274.689C296.88 272.255 298.805 270.283 301.181 270.283C303.555 270.283 305.48 272.255 305.48 274.689Z" fill="white"/>
<path d="M280.768 317.934C280.815 308.281 288.714 300.429 298.231 300.379C302.418 300.379 306.225 301.794 309.224 304.183C310.367 305.159 310.556 306.866 309.7 308.085C308.746 309.305 306.985 309.501 305.892 308.621C303.799 306.866 301.182 305.939 298.231 305.939C294.947 305.939 291.902 307.306 289.666 309.449C287.525 311.694 286.193 314.619 286.193 317.934C286.193 321.251 287.525 324.274 289.666 326.419C291.902 328.566 294.947 329.931 298.231 329.931C301.182 329.931 303.75 329.004 305.892 327.249C306.985 326.419 308.746 326.615 309.7 327.786C310.556 329.004 310.367 330.759 309.224 331.687C306.225 334.076 302.418 335.49 298.231 335.49C288.714 335.49 280.815 327.638 280.768 317.934Z" fill="#E7E8E5"/>
<path d="M326.4 321.007H319.642C318.215 321.007 317.025 319.837 317.025 318.325C317.025 316.864 318.215 315.644 319.642 315.644H326.4V308.865C326.4 307.305 327.59 306.086 329.113 306.086C330.588 306.086 331.824 307.305 331.824 308.865V315.644H338.58C340.009 315.644 341.198 316.864 341.198 318.325C341.198 319.837 340.009 321.007 338.58 321.007H331.824V327.786C331.824 329.346 330.588 330.565 329.113 330.565C327.59 330.565 326.4 329.346 326.4 327.786V321.007Z" fill="#E7E8E5"/>
<path d="M355.902 321.007H349.142C347.716 321.007 346.527 319.837 346.527 318.325C346.527 316.864 347.716 315.644 349.142 315.644H355.902V308.865C355.902 307.305 357.09 306.086 358.612 306.086C360.087 306.086 361.326 307.305 361.326 308.865V315.644H368.083C369.51 315.644 370.698 316.864 370.698 318.325C370.698 319.837 369.51 321.007 368.083 321.007H361.326V327.786C361.326 329.346 360.087 330.565 358.612 330.565C357.09 330.565 355.902 329.346 355.902 327.786V321.007Z" fill="#E7E8E5"/>
<path d="M329.892 87.9209V286.698H93.6982V87.9209H329.892Z" fill="white"/>
<path d="M94.5943 285.781H328.998V88.8381H94.5943V285.781ZM330.789 287.615H92.8047V87.0039H330.789V287.615Z" fill="#E7E8E5"/>
<path d="M329.892 87.9209V105.428H93.6982V87.9209H329.892Z" fill="#FABB1E"/>
<path d="M94.5943 104.511H328.998V88.8382H94.5943V104.511ZM330.789 106.347H92.8047V87.0039H330.789V106.347Z" fill="#E7E8E5"/>
<path d="M109.737 96.8016C109.737 99.236 107.812 101.209 105.436 101.209C103.062 101.209 101.137 99.236 101.137 96.8016C101.137 94.3671 103.062 92.3956 105.436 92.3956C107.812 92.3956 109.737 94.3671 109.737 96.8016Z" fill="#999B9B"/>
<path d="M127.295 96.8016C127.295 99.236 125.37 101.209 122.995 101.209C120.621 101.209 118.695 99.236 118.695 96.8016C118.695 94.3671 120.621 92.3956 122.995 92.3956C125.37 92.3956 127.295 94.3671 127.295 96.8016Z" fill="#E7E8E5"/>
<path d="M144.854 96.8016C144.854 99.236 142.929 101.209 140.554 101.209C138.179 101.209 136.254 99.236 136.254 96.8016C136.254 94.3671 138.179 92.3956 140.554 92.3956C142.929 92.3956 144.854 94.3671 144.854 96.8016Z" fill="white"/>
<path d="M121.162 143.678H112.027V140.26H121.162V143.678Z" fill="#E7E8E5"/>
<path d="M232.599 143.678H127.818V140.26H232.599V143.678Z" fill="#E7E8E5"/>
<path d="M255.562 143.678H238.212V140.26H255.562V143.678Z" fill="#FABB1E"/>
<path d="M295.248 189.432H277.896V186.013H295.248V189.432Z" fill="#E7E8E5"/>
<path d="M289.328 143.678H259.334V140.26H289.328V143.678Z" fill="#999B9B"/>
<path d="M130.296 152.829H121.161V149.409H130.296V152.829Z" fill="#E7E8E5"/>
<path d="M205.487 152.829H136.724V149.409H205.487V152.829Z" fill="#999B9B"/>
<path d="M273.776 189.432H233.515V186.013H273.776V189.432Z" fill="#999B9B"/>
<path d="M193.498 180.281H127.818V176.863H193.498V180.281Z" fill="#999B9B"/>
<path d="M182.801 161.98H136.724V158.561H182.801V161.98Z" fill="#FABB1E"/>
<path d="M267.389 171.131H249.814V167.712H267.389V171.131Z" fill="#999B9B"/>
<path d="M261.494 161.98H187.913V158.561H261.494V161.98Z" fill="#999B9B"/>
<path d="M215.651 189.432H127.818V186.013H215.651V189.432Z" fill="#FABB1E"/>
<path d="M304.999 152.829H257.4V149.409H304.999V152.829Z" fill="#FABB1E"/>
<path d="M253.629 152.829H209.806V149.409H253.629V152.829Z" fill="#E7E8E5"/>
<path d="M294.524 161.98H264.952V158.561H294.524V161.98Z" fill="#E7E8E5"/>
<path d="M130.296 161.98H121.161V158.561H130.296V161.98Z" fill="#E7E8E5"/>
<path d="M121.162 171.131H112.027V167.712H121.162V171.131Z" fill="#999B9B"/>
<path d="M181.803 171.131H127.818V167.712H181.803V171.131Z" fill="#E7E8E5"/>
<path d="M190.709 198.583H136.724V195.164H190.709V198.583Z" fill="#E7E8E5"/>
<path d="M278.428 207.734H237.387V204.315H278.428V207.734Z" fill="#FABB1E"/>
<path d="M249.227 198.583H195.091V195.164H249.227V198.583Z" fill="#FABB1E"/>
<path d="M232.667 207.734H185.543V204.315H232.667V207.734Z" fill="#E7E8E5"/>
<path d="M152.355 207.734H136.724V204.315H152.355V207.734Z" fill="#999B9B"/>
<path d="M255.562 180.281H197.216V176.863H255.562V180.281Z" fill="#E7E8E5"/>
<path d="M296.459 180.281H259.334V176.863H296.459V180.281Z" fill="#FABB1E"/>
<path d="M245.57 171.131H187.292V167.712H245.57V171.131Z" fill="#FABB1E"/>
<path d="M121.162 180.281H112.027V176.863H121.162V180.281Z" fill="#E7E8E5"/>
<path d="M121.162 189.432H112.027V186.013H121.162V189.432Z" fill="#E7E8E5"/>
<path d="M130.296 198.583H121.161V195.164H130.296V198.583Z" fill="#999B9B"/>
<path d="M130.296 207.734H121.161V204.315H130.296V207.734Z" fill="#E7E8E5"/>
<path d="M121.162 215.398H112.027V211.979H121.162V215.398Z" fill="#E7E8E5"/>
<path d="M232.599 215.398H127.818V211.979H232.599V215.398Z" fill="#E7E8E5"/>
<path d="M130.296 224.549H121.161V221.13H130.296V224.549Z" fill="#E7E8E5"/>
<path d="M205.487 224.549H136.724V221.13H205.487V224.549Z" fill="#999B9B"/>
<path d="M193.498 252.001H127.818V248.582H193.498V252.001Z" fill="#999B9B"/>
<path d="M182.801 233.699H136.724V230.28H182.801V233.699Z" fill="#FABB1E"/>
<path d="M261.494 233.699H187.913V230.28H261.494V233.699Z" fill="#999B9B"/>
<path d="M215.651 261.153H127.818V257.733H215.651V261.153Z" fill="#FABB1E"/>
<path d="M304.999 224.549H257.4V221.13H304.999V224.549Z" fill="#FABB1E"/>
<path d="M253.629 224.549H209.806V221.13H253.629V224.549Z" fill="#E7E8E5"/>
<path d="M294.524 233.699H264.952V230.28H294.524V233.699Z" fill="#E7E8E5"/>
<path d="M130.296 233.699H121.161V230.28H130.296V233.699Z" fill="#E7E8E5"/>
<path d="M121.162 242.85H112.027V239.431H121.162V242.85Z" fill="#999B9B"/>
<path d="M181.803 242.85H127.818V239.431H181.803V242.85Z" fill="#E7E8E5"/>
<path d="M255.562 252.001H197.216V248.582H255.562V252.001Z" fill="#E7E8E5"/>
<path d="M245.57 242.85H187.292V239.431H245.57V242.85Z" fill="#FABB1E"/>
<path d="M121.162 252.001H112.027V248.582H121.162V252.001Z" fill="#E7E8E5"/>
<path d="M117.669 131.255C117.984 131.588 117.984 132.089 117.669 132.41C117.507 132.565 117.32 132.642 117.118 132.642C116.905 132.642 116.704 132.565 116.541 132.41L113.019 128.749L112.956 128.672L112.917 128.645L112.881 128.543L112.842 128.492L112.818 128.415L112.792 128.349V128.261L112.779 128.184L112.792 128.118V128.029L112.818 127.978L112.842 127.874L112.854 127.849L112.917 127.734L112.944 127.708L113.019 127.619L116.541 123.956C116.855 123.648 117.369 123.648 117.669 123.956C117.984 124.276 117.984 124.791 117.669 125.113L114.699 128.184L117.669 131.255Z" fill="#FABB1E"/>
<path d="M120.863 131.665L123.935 124.174C124.086 123.814 124.486 123.648 124.849 123.803C125.188 123.943 125.351 124.368 125.201 124.714L122.129 132.217C122.016 132.488 121.754 132.642 121.489 132.642L121.239 132.59C120.875 132.45 120.713 132.026 120.863 131.665Z" fill="#FABB1E"/>
<path d="M131.267 128.645L131.254 128.657L131.165 128.749L127.643 132.41C127.493 132.565 127.279 132.642 127.078 132.642C126.865 132.642 126.678 132.565 126.515 132.41C126.201 132.089 126.201 131.588 126.515 131.255L129.486 128.184L126.515 125.113C126.201 124.791 126.201 124.276 126.515 123.956C126.816 123.648 127.329 123.648 127.643 123.956L131.165 127.619L131.254 127.708L131.267 127.734L131.33 127.849L131.342 127.874L131.379 127.991L131.391 128.029V128.118L131.406 128.184L131.391 128.247V128.349L131.379 128.377L131.342 128.492L131.33 128.53L131.267 128.645Z" fill="#FABB1E"/>
<path d="M356.83 96.6482H260.347V60.0451H356.83V96.6482Z" fill="#33535F"/>
<path d="M274.268 85.9406V69.707C274.268 68.8542 274.913 68.1941 275.745 68.1941C276.578 68.1941 277.247 68.8542 277.247 69.707V76.3109H284.203V69.707C284.203 68.8542 284.847 68.1941 285.68 68.1941C286.512 68.1941 287.183 68.8542 287.183 69.707V85.9406C287.183 86.795 286.512 87.4551 285.68 87.4551C284.847 87.4551 284.203 86.795 284.203 85.9406V79.3383H277.247V85.9406C277.247 86.795 276.578 87.4551 275.745 87.4551C274.913 87.4551 274.268 86.795 274.268 85.9406Z" fill="white"/>
<path d="M304.799 71.2478H300.53V85.9406C300.53 86.795 299.885 87.4551 299.053 87.4551C298.247 87.4551 297.577 86.795 297.577 85.9406V71.2478H293.334C292.502 71.2478 291.856 70.5322 291.856 69.707C291.856 68.8542 292.502 68.1941 293.334 68.1941H304.799C305.606 68.1941 306.276 68.8542 306.276 69.707C306.276 70.5322 305.606 71.2478 304.799 71.2478Z" fill="white"/>
<path d="M326.874 69.707V85.9406C326.874 86.7672 326.173 87.4551 325.369 87.4551C324.535 87.4551 323.892 86.7672 323.892 85.9406V74.3569L320.025 79.8611C319.73 80.2729 319.299 80.4934 318.816 80.4934H318.791H318.762C318.279 80.4934 317.823 80.2729 317.528 79.8611L313.687 74.3569V85.9406C313.687 86.7672 313.016 87.4551 312.184 87.4551C311.377 87.4551 310.706 86.7672 310.706 85.9406V69.707C310.706 68.8819 311.377 68.1941 312.184 68.1941H312.265C312.694 68.1941 313.176 68.4131 313.447 68.8264L318.791 76.4204L324.133 68.8264C324.428 68.4131 324.857 68.1941 325.34 68.1941H325.369C326.173 68.2218 326.874 68.8819 326.874 69.707Z" fill="white"/>
<path d="M333.371 85.9406V69.707C333.371 68.8819 334.015 68.1941 334.847 68.1941C335.68 68.1941 336.352 68.8819 336.352 69.707V84.3999H343.629C344.407 84.3999 345.105 85.0878 345.105 85.9406C345.105 86.7672 344.407 87.4551 343.629 87.4551H334.929H334.876H334.847C334.015 87.4551 333.371 86.7672 333.371 85.9406Z" fill="white"/>
<path d="M99.0142 236.509H19.5039V199.905H99.0142V236.509Z" fill="#33535F"/>
<path d="M39.8577 216.776H43.1588C44.718 216.776 45.9244 215.51 45.9521 213.969C45.9244 212.373 44.718 211.109 43.1588 211.109H39.8577V216.776ZM43.1588 219.831H39.8577V225.801C39.8577 226.627 39.1869 227.314 38.3547 227.314C37.5464 227.314 36.875 226.627 36.875 225.801V209.566C36.875 208.714 37.5464 208.053 38.3547 208.053H38.3819H43.1588C46.3546 208.053 48.9349 210.695 48.9349 213.969C48.9349 217.188 46.3546 219.831 43.1588 219.831Z" fill="white"/>
<path d="M52.5332 225.801V209.566C52.5332 208.714 53.1762 208.053 54.0083 208.053C54.84 208.053 55.5108 208.714 55.5108 209.566V216.17H62.466V209.566C62.466 208.714 63.1123 208.053 63.9456 208.053C64.7773 208.053 65.4487 208.714 65.4487 209.566V225.801C65.4487 226.656 64.7773 227.314 63.9456 227.314C63.1123 227.314 62.466 226.656 62.466 225.801V219.198H55.5108V225.801C55.5108 226.656 54.84 227.314 54.0083 227.314C53.1762 227.314 52.5332 226.656 52.5332 225.801Z" fill="white"/>
<path d="M74.5502 216.776H77.8541C79.41 216.776 80.6202 215.51 80.6474 213.969C80.6202 212.373 79.41 211.109 77.8541 211.109H74.5502V216.776ZM77.8541 219.831H74.5502V225.801C74.5502 226.627 73.8783 227.314 73.046 227.314C72.2422 227.314 71.5703 226.627 71.5703 225.801V209.566C71.5703 208.714 72.2422 208.053 73.046 208.053H73.0745H77.8541C81.0499 208.053 83.6268 210.695 83.6268 213.969C83.6268 217.188 81.0499 219.831 77.8541 219.831Z" fill="white"/>
<path d="M333.365 197.52L339.399 212.449L333.372 215.005L327.307 199.975L317.35 207.891V165.837L346.077 195.576L333.365 197.52Z" fill="#17282F"/>
<path d="M317.35 161.251C317.062 160.546 316.998 159.842 316.985 159.137C316.997 158.433 317.061 157.727 317.35 157.022C317.639 157.727 317.704 158.433 317.715 159.137C317.702 159.842 317.638 160.546 317.35 161.251Z" fill="#17282F"/>
<path d="M313.796 162.76C313.106 162.469 312.573 162.018 312.08 161.529C311.601 161.023 311.16 160.477 310.879 159.769C311.569 160.058 312.1 160.509 312.595 161C313.072 161.508 313.514 162.053 313.796 162.76Z" fill="#17282F"/>
<path d="M312.325 166.402C311.635 166.696 310.948 166.763 310.26 166.776C309.573 166.764 308.885 166.698 308.196 166.402C308.885 166.106 309.573 166.038 310.26 166.028C310.948 166.04 311.635 166.107 312.325 166.402Z" fill="#17282F"/>
<path d="M313.796 170.043C313.514 170.749 313.072 171.296 312.595 171.802C312.1 172.293 311.569 172.744 310.879 173.033C311.16 172.325 311.601 171.78 312.08 171.274C312.573 170.784 313.106 170.333 313.796 170.043Z" fill="#17282F"/>
<path d="M322.375 166.402C323.065 166.107 323.752 166.04 324.44 166.028C325.127 166.038 325.814 166.106 326.502 166.402C325.814 166.698 325.127 166.764 324.44 166.776C323.752 166.763 323.065 166.696 322.375 166.402Z" fill="#17282F"/>
<path d="M320.904 162.76C321.186 162.053 321.627 161.508 322.106 161C322.6 160.509 323.132 160.058 323.821 159.769C323.541 160.477 323.099 161.023 322.62 161.529C322.126 162.018 321.593 162.469 320.904 162.76Z" fill="#17282F"/>
<path d="M425.569 341.575C414.582 390.61 392.342 452.691 375.156 465.214C361.297 475.32 288.583 493.116 284.53 493.564C274.492 494.603 254.669 421.936 265.073 418.982C278.184 415.261 340.499 413.275 344.045 409.546C347.723 405.646 370.401 374.176 396.077 337.719C413.795 312.528 432.388 311.151 425.569 341.575Z" fill="#F25553"/>
<path d="M292.587 489.572C291.392 490.192 274.413 498.943 263.914 502.062C256.082 504.388 233.359 510.467 230.004 501.884C227.708 496.032 240.658 490.846 249.737 486.97C254.52 484.929 260.414 479.799 259.005 476.648C256.539 471.138 244.227 476.672 236.131 481.493C220.475 490.816 199.618 507.597 190.053 499.457C186.442 496.378 190.639 490.775 196.781 485.282C186.815 491.686 176.187 496.937 172.043 493.682C169.664 491.828 169.553 489.284 170.878 486.378C167.8 487.401 165.081 487.201 163.187 485.148C159.947 481.674 161.526 476.546 165.07 471.29C163.934 471.169 162.912 470.575 162.127 469.309C155.268 458.592 189.598 427.822 201.472 424.942C236.406 416.431 273.566 419.534 273.566 419.534C287.287 430.771 292.614 489.548 292.587 489.572Z" fill="#F25553"/>
<path d="M241.22 456.618C232.994 457.938 224.895 461.091 217.92 465.81C209.064 471.798 203.19 478.81 195.759 485.869C195.564 486.056 195.839 486.373 196.034 486.187C199.576 482.83 214.246 470.212 218.036 467.346C224.982 462.091 232.742 458.403 241.251 456.763L241.22 456.618Z" fill="#17282F"/>
<path d="M234.712 441.429C225.53 444 216.123 446.601 207.601 451.052C198.276 455.921 190.979 463.862 183.802 471.501C179.494 476.091 175.278 480.769 171.178 485.556C171.006 485.757 171.268 486.074 171.453 485.872C178.734 477.98 186.244 470.301 193.983 462.879C201.262 455.897 209.381 450.553 218.707 446.911C223.96 444.861 229.356 443.225 234.746 441.595L234.712 441.429Z" fill="#17282F"/>
<path d="M224.903 428.146C215.984 430.023 208.201 431.628 200.303 436.526C189.846 443.01 179.751 453.939 176.209 457.81C172.297 462.09 168.528 466.498 164.824 470.966C164.673 471.149 164.978 471.423 165.135 471.242C173.6 461.473 182.719 452.193 192.347 443.625C196.947 439.531 201.948 435.965 207.561 433.487C213.112 431.037 219.06 429.649 224.917 428.208L224.903 428.146Z" fill="#17282F"/>
<path d="M344.581 402.397L411.605 399.483C411.605 399.483 423.774 365.452 428.25 335.24C432.727 305.027 407.61 315.872 382.731 348.41C357.852 380.947 344.581 402.397 344.581 402.397Z" fill="#FABB1E"/>
<path d="M408.764 387.559C408.712 388.053 408.618 388.392 408.418 388.736C408.028 389.392 407.342 389.808 406.638 389.8C405.551 389.782 404.424 390.506 404.037 391.549C403.819 392.049 403.806 392.653 403.891 393.112C403.985 393.578 404.039 394.045 404.167 394.512C404.295 394.045 404.351 393.578 404.444 393.112C404.496 392.637 404.613 392.29 404.823 391.957C405.246 391.314 405.914 390.939 406.658 390.956C407.79 390.944 408.857 390.168 409.215 389.113C409.419 388.611 409.399 387.993 409.314 387.559C409.223 387.091 409.168 386.625 409.041 386.159C408.914 386.625 408.858 387.091 408.764 387.559ZM389.578 361.404C389.524 361.897 389.43 362.238 389.231 362.581C388.84 363.237 388.155 363.653 387.451 363.646C386.363 363.627 385.238 364.351 384.85 365.395C384.632 365.895 384.619 366.498 384.705 366.955C384.797 367.424 384.853 367.889 384.98 368.355C385.108 367.889 385.163 367.424 385.256 366.955C385.309 366.483 385.426 366.135 385.635 365.801C386.058 365.158 386.728 364.783 387.471 364.801C388.602 364.79 389.67 364.012 390.027 362.958C390.232 362.455 390.211 361.836 390.128 361.404C390.036 360.937 389.98 360.469 389.853 360.003C389.727 360.469 389.671 360.937 389.578 361.404ZM397.158 335.682C396.774 335.989 396.474 336.164 396.09 336.268C395.363 336.443 394.593 336.237 394.094 335.727L393.738 335.406C393.467 335.682 393.211 335.961 392.956 336.253L393.325 336.56C394.123 337.376 395.42 337.597 396.405 337.115C396.888 336.91 397.301 336.458 397.543 336.078C397.8 335.682 398.085 335.317 398.313 334.894C397.899 335.127 397.543 335.421 397.158 335.682ZM415.367 366.901C414.989 367.21 414.689 367.383 414.308 367.482C413.58 367.663 412.809 367.459 412.317 366.945C411.559 366.143 410.264 365.839 409.27 366.296C408.77 366.49 408.345 366.91 408.089 367.295C407.834 367.692 407.55 368.062 407.319 368.485C407.731 368.247 408.092 367.958 408.479 367.695C408.844 367.399 409.168 367.238 409.544 367.153C410.288 367.006 411.019 367.225 411.533 367.776C412.34 368.587 413.633 368.811 414.613 368.325C415.103 368.117 415.517 367.666 415.757 367.299C416.012 366.901 416.296 366.531 416.528 366.109C416.116 366.347 415.756 366.638 415.367 366.901ZM413.667 340.144C414.15 340.198 414.48 340.294 414.817 340.5C415.457 340.9 415.861 341.603 415.854 342.322C415.836 343.438 416.543 344.593 417.562 344.988C418.049 345.214 418.639 345.224 419.086 345.138C419.541 345.042 419.996 344.986 420.453 344.856C419.996 344.725 419.541 344.668 419.086 344.571C418.623 344.517 418.284 344.398 417.961 344.184C417.331 343.751 416.964 343.064 416.982 342.302C416.972 341.144 416.212 340.05 415.183 339.684C414.696 339.473 414.09 339.495 413.667 339.58C413.212 339.675 412.756 339.732 412.301 339.862C412.756 339.99 413.212 340.049 413.667 340.144ZM366.515 381.865C366.969 381.734 367.425 381.678 367.88 381.583C368.305 381.499 368.909 381.478 369.396 381.686C370.425 382.052 371.185 383.148 371.195 384.306C371.178 385.068 371.544 385.753 372.174 386.187C372.497 386.401 372.836 386.521 373.3 386.575C373.754 386.671 374.209 386.727 374.666 386.858C374.209 386.99 373.754 387.045 373.3 387.143C372.852 387.228 372.262 387.216 371.775 386.993C370.757 386.597 370.049 385.443 370.067 384.327C370.075 383.606 369.67 382.902 369.031 382.503C368.694 382.298 368.363 382.203 367.88 382.147C367.425 382.051 366.969 381.995 366.515 381.865Z" fill="white"/>
<path d="M413.889 384.576C399.394 384.196 384.853 384.855 370.362 385.807C366.262 386.076 362.167 386.442 358.085 386.91L358.078 387.098C365.32 387.13 372.561 386.86 379.805 386.634C387.067 386.406 394.338 386.115 401.595 385.68C405.692 385.433 409.786 385.191 413.881 384.858C414.056 384.842 414.072 384.58 413.889 384.576Z" fill="#17282F"/>
<path d="M363.384 512.158H534.446C536.33 508.615 508.295 355.063 450.604 311.825C437.804 302.234 415.098 308.404 408.782 317.73C377.036 364.611 363.384 512.158 363.384 512.158Z" fill="#FABB1E"/>
<path d="M381.536 407.237C381.916 406.927 382.215 406.755 382.595 406.657C383.324 406.476 384.094 406.679 384.588 407.194C385.344 407.996 386.64 408.3 387.633 407.841C388.133 407.647 388.558 407.229 388.814 406.844C389.07 406.445 389.353 406.076 389.584 405.652C389.172 405.89 388.812 406.181 388.424 406.442C388.059 406.74 387.737 406.901 387.359 406.985C386.615 407.133 385.884 406.914 385.37 406.363C384.563 405.55 383.271 405.326 382.29 405.814C381.802 406.019 381.387 406.473 381.147 406.839C380.891 407.237 380.609 407.606 380.375 408.028C380.788 407.79 381.149 407.501 381.536 407.237ZM385.658 495.234C386.038 494.924 386.339 494.751 386.718 494.653C387.445 494.473 388.216 494.674 388.71 495.191C389.466 495.993 390.764 496.296 391.757 495.838C392.255 495.644 392.681 495.224 392.937 494.841C393.194 494.442 393.476 494.072 393.708 493.649C393.295 493.887 392.934 494.178 392.547 494.439C392.183 494.736 391.86 494.897 391.481 494.981C390.738 495.13 390.006 494.911 389.493 494.36C388.688 493.547 387.394 493.323 386.415 493.811C385.923 494.017 385.511 494.47 385.27 494.836C385.014 495.234 384.73 495.603 384.498 496.025C384.91 495.787 385.27 495.498 385.658 495.234ZM522.253 452.164C521.911 452.062 521.612 451.872 521.355 451.607C520.557 450.804 519.262 450.57 518.277 451.068C517.793 451.273 517.379 451.724 517.137 452.089C516.882 452.485 516.596 452.85 516.367 453.274C516.781 453.04 517.137 452.747 517.522 452.485C517.907 452.178 518.206 452.003 518.576 451.9C519.303 451.724 520.088 451.93 520.572 452.44C521.07 452.982 521.813 453.288 522.552 453.301C522.453 452.923 522.353 452.544 522.253 452.164ZM509.372 508.889C509.751 508.578 510.051 508.407 510.431 508.308C511.159 508.127 511.93 508.33 512.423 508.845C513.18 509.647 514.475 509.951 515.468 509.494C515.968 509.298 516.395 508.881 516.651 508.495C516.905 508.098 517.188 507.728 517.421 507.305C517.007 507.543 516.648 507.832 516.259 508.095C515.894 508.39 515.572 508.552 515.195 508.636C514.452 508.786 513.72 508.565 513.207 508.015C512.399 507.202 511.107 506.978 510.126 507.464C509.637 507.671 509.225 508.124 508.983 508.49C508.726 508.889 508.444 509.259 508.212 509.681C508.624 509.443 508.984 509.152 509.372 508.889ZM437.174 488.016C437.553 487.705 437.852 487.533 438.232 487.434C438.961 487.252 439.732 487.457 440.225 487.972C440.981 488.772 442.278 489.077 443.27 488.619C443.77 488.425 444.196 488.006 444.452 487.62C444.708 487.223 444.99 486.853 445.222 486.432C444.809 486.668 444.449 486.959 444.061 487.22C443.696 487.517 443.373 487.677 442.997 487.762C442.253 487.911 441.522 487.69 441.007 487.14C440.2 486.329 438.909 486.104 437.929 486.591C437.437 486.798 437.025 487.251 436.786 487.616C436.528 488.015 436.246 488.384 436.012 488.806C436.425 488.569 436.786 488.277 437.174 488.016ZM493.153 472.171C493.532 471.86 493.834 471.689 494.212 471.591C494.94 471.41 495.711 471.612 496.204 472.129C496.961 472.93 498.257 473.234 499.251 472.776C499.749 472.583 500.176 472.162 500.432 471.778C500.687 471.38 500.971 471.01 501.203 470.587C500.79 470.825 500.429 471.115 500.04 471.376C499.675 471.673 499.353 471.835 498.976 471.918C498.233 472.067 497.501 471.847 496.988 471.298C496.18 470.484 494.888 470.261 493.908 470.747C493.418 470.955 493.006 471.407 492.765 471.774C492.507 472.171 492.225 472.54 491.993 472.963C492.405 472.724 492.765 472.436 493.153 472.171ZM459.874 451.299C460.252 450.988 460.552 450.816 460.933 450.718C461.661 450.537 462.432 450.74 462.924 451.255C463.682 452.057 464.979 452.361 465.97 451.902C466.471 451.708 466.895 451.289 467.152 450.905C467.408 450.507 467.691 450.137 467.923 449.715C467.51 449.951 467.149 450.242 466.761 450.503C466.397 450.8 466.073 450.962 465.697 451.045C464.953 451.194 464.22 450.975 463.707 450.424C462.901 449.611 461.608 449.389 460.628 449.875C460.138 450.081 459.726 450.534 459.483 450.901C459.228 451.298 458.945 451.667 458.712 452.089C459.124 451.851 459.485 451.562 459.874 451.299ZM411.523 508.889C411.904 508.578 412.203 508.407 412.582 508.308C413.31 508.127 414.083 508.33 414.574 508.845C415.331 509.647 416.628 509.951 417.621 509.494C418.121 509.298 418.546 508.881 418.801 508.495C419.058 508.098 419.341 507.727 419.572 507.305C419.159 507.543 418.798 507.832 418.411 508.095C418.047 508.39 417.724 508.552 417.346 508.636C416.604 508.786 415.873 508.565 415.357 508.015C414.552 507.202 413.259 506.978 412.279 507.464C411.788 507.671 411.375 508.124 411.136 508.49C410.879 508.888 410.596 509.259 410.362 509.681C410.775 509.443 411.136 509.152 411.523 508.889ZM400.722 456.484C401.102 456.172 401.402 456.002 401.783 455.902C402.51 455.723 403.282 455.924 403.774 456.44C404.532 457.241 405.827 457.547 406.82 457.087C407.321 456.892 407.745 456.473 408 456.091C408.257 455.692 408.541 455.321 408.771 454.899C408.36 455.136 407.998 455.426 407.61 455.689C407.247 455.984 406.923 456.146 406.545 456.229C405.803 456.38 405.072 456.159 404.556 455.607C403.751 454.797 402.458 454.572 401.478 455.058C400.988 455.266 400.574 455.72 400.333 456.086C400.078 456.482 399.793 456.853 399.561 457.275C399.973 457.037 400.335 456.746 400.722 456.484ZM425.709 406.049C426.089 405.74 426.39 405.567 426.768 405.468C427.496 405.287 428.268 405.49 428.761 406.007C429.517 406.807 430.813 407.111 431.807 406.654C432.307 406.46 432.732 406.04 432.987 405.655C433.243 405.258 433.525 404.888 433.758 404.465C433.346 404.703 432.985 404.992 432.596 405.255C432.233 405.551 431.911 405.712 431.532 405.797C430.789 405.946 430.057 405.725 429.542 405.174C428.737 404.362 427.444 404.139 426.464 404.625C425.975 404.833 425.562 405.284 425.321 405.651C425.065 406.049 424.781 406.419 424.549 406.841C424.961 406.603 425.322 406.314 425.709 406.049ZM462.593 371.815C462.972 371.505 463.271 371.333 463.652 371.234C464.38 371.054 465.151 371.257 465.643 371.771C466.401 372.573 467.696 372.878 468.69 372.42C469.19 372.225 469.614 371.806 469.871 371.422C470.126 371.023 470.41 370.654 470.641 370.232C470.229 370.468 469.867 370.759 469.479 371.022C469.116 371.317 468.792 371.478 468.416 371.562C467.672 371.711 466.941 371.491 466.426 370.94C465.62 370.128 464.327 369.905 463.347 370.391C462.857 370.598 462.443 371.051 462.203 371.418C461.947 371.813 461.664 372.184 461.432 372.606C461.843 372.368 462.204 372.078 462.593 371.815ZM413.555 480.666C413.503 481.161 413.407 481.5 413.209 481.845C412.817 482.499 412.133 482.915 411.429 482.908C410.34 482.889 409.215 483.613 408.827 484.657C408.609 485.157 408.596 485.762 408.682 486.219C408.774 486.686 408.83 487.152 408.957 487.619C409.085 487.152 409.141 486.686 409.235 486.219C409.287 485.745 409.404 485.398 409.614 485.063C410.035 484.42 410.705 484.046 411.448 484.063C412.579 484.053 413.647 483.274 414.004 482.22C414.21 481.719 414.188 481.098 414.106 480.666C414.013 480.198 413.957 479.733 413.831 479.266C413.704 479.733 413.648 480.198 413.555 480.666ZM471.991 397.512C471.939 398.007 471.843 398.346 471.644 398.692C471.253 399.346 470.569 399.761 469.864 399.754C468.776 399.736 467.649 400.46 467.263 401.505C467.044 402.003 467.032 402.607 467.118 403.066C467.21 403.532 467.264 403.999 467.393 404.465C467.521 403.999 467.577 403.532 467.669 403.066C467.722 402.592 467.839 402.243 468.048 401.91C468.472 401.266 469.141 400.893 469.884 400.909C471.015 400.898 472.083 400.12 472.44 399.067C472.644 398.565 472.624 397.946 472.54 397.512C472.449 397.046 472.393 396.579 472.267 396.111C472.14 396.579 472.084 397.046 471.991 397.512ZM408.764 387.559C408.712 388.053 408.618 388.392 408.418 388.736C408.028 389.392 407.342 389.808 406.638 389.8C405.551 389.782 404.423 390.506 404.037 391.549C403.819 392.049 403.806 392.653 403.89 393.11C403.985 393.578 404.039 394.045 404.167 394.511C404.295 394.045 404.351 393.578 404.443 393.11C404.496 392.637 404.613 392.29 404.822 391.957C405.246 391.314 405.914 390.939 406.658 390.956C407.79 390.944 408.857 390.168 409.215 389.113C409.418 388.611 409.398 387.993 409.314 387.559C409.223 387.091 409.168 386.625 409.041 386.159C408.914 386.625 408.858 387.091 408.764 387.559ZM415.807 313.508C415.753 314.001 415.659 314.34 415.459 314.685C415.069 315.342 414.383 315.757 413.679 315.749C412.591 315.73 411.465 316.455 411.077 317.499C410.859 317.997 410.848 318.601 410.932 319.059C411.025 319.526 411.08 319.993 411.208 320.459C411.337 319.993 411.391 319.526 411.486 319.059C411.539 318.585 411.656 318.239 411.864 317.905C412.287 317.262 412.957 316.887 413.699 316.905C414.83 316.894 415.898 316.116 416.255 315.062C416.46 314.559 416.438 313.941 416.357 313.508C416.263 313.039 416.209 312.573 416.082 312.107C415.954 312.573 415.9 313.039 415.807 313.508ZM390.147 361.503C389.905 362.321 389.662 363.123 389.42 363.942C389.692 363.663 389.905 363.329 390.033 362.964C390.218 362.496 390.204 361.927 390.147 361.503ZM387.141 435.087C387.087 435.581 386.993 435.92 386.794 436.264C386.405 436.92 385.719 437.336 385.014 437.328C383.926 437.309 382.8 438.034 382.413 439.079C382.195 439.577 382.182 440.181 382.268 440.639C382.36 441.106 382.416 441.573 382.544 442.039C382.672 441.573 382.726 441.106 382.819 440.639C382.873 440.165 382.99 439.818 383.2 439.485C383.621 438.842 384.291 438.467 385.034 438.484C386.165 438.473 387.234 437.696 387.59 436.641C387.795 436.139 387.774 435.521 387.691 435.087C387.599 434.619 387.545 434.153 387.416 433.687C387.29 434.153 387.235 434.619 387.141 435.087ZM512.25 418.807L512.193 418.924C511.807 419.581 511.125 420.004 510.412 419.991C509.328 419.977 508.202 420.707 507.817 421.744C507.589 422.241 507.575 422.854 507.66 423.305C507.76 423.774 507.817 424.241 507.945 424.707C508.073 424.241 508.13 423.774 508.217 423.305C508.274 422.839 508.388 422.489 508.601 422.152C509.014 421.51 509.684 421.13 510.439 421.145C511.294 421.145 512.136 420.676 512.634 419.991V419.977C512.505 419.596 512.377 419.203 512.25 418.807ZM487.787 493.249C487.733 493.743 487.639 494.082 487.439 494.429C487.049 495.083 486.364 495.498 485.66 495.49C484.572 495.471 483.446 496.196 483.059 497.24C482.841 497.74 482.828 498.344 482.913 498.802C483.006 499.268 483.062 499.734 483.19 500.203C483.317 499.734 483.372 499.268 483.465 498.802C483.518 498.328 483.634 497.98 483.845 497.649C484.267 497.003 484.937 496.628 485.68 496.645C486.811 496.635 487.878 495.857 488.236 494.802C488.441 494.301 488.42 493.682 488.337 493.249C488.245 492.781 488.189 492.316 488.062 491.848C487.935 492.316 487.88 492.781 487.787 493.249ZM488.179 360.612L487.951 360.625C486.854 360.612 485.728 361.328 485.343 362.379C485.129 362.874 485.117 363.475 485.201 363.942C485.286 364.408 485.343 364.877 485.473 365.344C485.6 364.877 485.657 364.408 485.756 363.942C485.799 363.46 485.927 363.123 486.128 362.788C486.555 362.144 487.224 361.766 487.967 361.779C488.222 361.779 488.464 361.737 488.706 361.649C488.535 361.297 488.35 360.963 488.179 360.612ZM431.315 432.148C431.262 432.643 431.167 432.982 430.967 433.328C430.577 433.982 429.893 434.397 429.187 434.389C428.1 434.37 426.973 435.098 426.587 436.139C426.367 436.639 426.356 437.243 426.441 437.701C426.534 438.167 426.588 438.635 426.716 439.102C426.844 438.635 426.9 438.167 426.993 437.701C427.045 437.228 427.164 436.879 427.372 436.548C427.795 435.903 428.465 435.527 429.207 435.544C430.339 435.534 431.406 434.758 431.764 433.702C431.969 433.202 431.948 432.583 431.865 432.148C431.772 431.682 431.717 431.215 431.59 430.749C431.463 431.215 431.408 431.682 431.315 432.148ZM442.171 350.032C442.117 350.525 442.023 350.867 441.824 351.21C441.433 351.866 440.748 352.281 440.044 352.275C438.955 352.256 437.829 352.98 437.441 354.025C437.223 354.524 437.211 355.127 437.296 355.584C437.389 356.053 437.444 356.519 437.573 356.985C437.701 356.519 437.755 356.053 437.849 355.584C437.903 355.113 438.019 354.765 438.228 354.431C438.65 353.788 439.32 353.413 440.064 353.43C441.194 353.42 442.263 352.642 442.619 351.587C442.824 351.085 442.803 350.466 442.721 350.032C442.627 349.565 442.573 349.099 442.445 348.631C442.318 349.099 442.264 349.565 442.171 350.032ZM443.076 320.063C442.697 320.374 442.395 320.545 442.016 320.643C441.289 320.824 440.518 320.623 440.025 320.106C439.268 319.304 437.97 319 436.978 319.459C436.48 319.654 436.053 320.072 435.797 320.456C435.54 320.855 435.258 321.224 435.026 321.648C435.439 321.41 435.8 321.121 436.189 320.858C436.552 320.561 436.874 320.399 437.253 320.316C437.996 320.167 438.728 320.388 439.241 320.938C440.049 321.75 441.341 321.975 442.32 321.489C442.811 321.28 443.223 320.827 443.464 320.461C443.722 320.063 444.004 319.694 444.236 319.272C443.824 319.51 443.464 319.799 443.076 320.063ZM489.07 421.246C488.691 421.557 488.39 421.728 488.011 421.829C487.283 422.008 486.512 421.805 486.019 421.29C485.262 420.488 483.965 420.184 482.973 420.643C482.473 420.837 482.047 421.256 481.792 421.64C481.535 422.037 481.253 422.408 481.021 422.83C481.434 422.594 481.793 422.303 482.182 422.04C482.547 421.745 482.869 421.585 483.247 421.5C483.991 421.35 484.722 421.57 485.236 422.122C486.043 422.933 487.334 423.157 488.316 422.671C488.805 422.464 489.218 422.011 489.459 421.645C489.715 421.247 489.998 420.877 490.23 420.454C489.818 420.692 489.457 420.983 489.07 421.246ZM415.367 366.901C414.989 367.21 414.688 367.383 414.308 367.482C413.58 367.663 412.809 367.459 412.317 366.943C411.559 366.143 410.263 365.839 409.27 366.296C408.77 366.49 408.345 366.91 408.089 367.295C407.834 367.692 407.55 368.062 407.319 368.485C407.731 368.247 408.092 367.958 408.479 367.695C408.844 367.399 409.168 367.238 409.544 367.153C410.288 367.006 411.019 367.225 411.533 367.775C412.34 368.589 413.632 368.811 414.613 368.325C415.103 368.117 415.516 367.666 415.757 367.299C416.012 366.901 416.296 366.531 416.528 366.109C416.116 366.347 415.756 366.638 415.367 366.901ZM489.282 446.191C489.765 446.245 490.097 446.343 490.434 446.546C491.072 446.946 491.477 447.648 491.471 448.37C491.453 449.485 492.159 450.639 493.178 451.036C493.666 451.26 494.256 451.273 494.702 451.185C495.158 451.091 495.612 451.034 496.068 450.902C495.612 450.772 495.158 450.715 494.702 450.619C494.24 450.565 493.901 450.445 493.575 450.23C492.947 449.798 492.581 449.112 492.598 448.351C492.588 447.191 491.829 446.097 490.8 445.73C490.311 445.521 489.705 445.542 489.282 445.626C488.828 445.722 488.373 445.779 487.915 445.909C488.373 446.039 488.828 446.096 489.282 446.191ZM514.181 484.216C514.665 484.27 514.995 484.368 515.333 484.571C515.971 484.973 516.376 485.674 516.369 486.396C516.352 487.511 517.059 488.665 518.078 489.062C518.564 489.285 519.154 489.298 519.601 489.211C520.056 489.116 520.51 489.059 520.968 488.928C520.51 488.796 520.056 488.741 519.601 488.644C519.139 488.59 518.799 488.47 518.475 488.256C517.845 487.823 517.479 487.137 517.496 486.376C517.486 485.217 516.727 484.123 515.699 483.756C515.21 483.546 514.605 483.568 514.181 483.653C513.727 483.747 513.271 483.804 512.816 483.934C513.271 484.065 513.727 484.121 514.181 484.216ZM451.457 421.925C451.94 421.979 452.272 422.076 452.609 422.281C453.247 422.682 453.653 423.383 453.646 424.104C453.628 425.22 454.336 426.375 455.354 426.769C455.841 426.995 456.431 427.006 456.877 426.92C457.333 426.823 457.789 426.768 458.244 426.638C457.789 426.507 457.333 426.449 456.877 426.353C456.415 426.299 456.076 426.179 455.751 425.966C455.123 425.532 454.758 424.846 454.773 424.084C454.764 422.925 454.004 421.832 452.975 421.465C452.486 421.255 451.881 421.276 451.457 421.361C451.003 421.456 450.548 421.513 450.092 421.643C450.548 421.773 451.003 421.83 451.457 421.925ZM379.835 468.251C380.317 468.305 380.649 468.402 380.983 468.608C381.625 469.006 382.03 469.711 382.022 470.432C382.004 471.544 382.711 472.701 383.73 473.096C384.217 473.32 384.806 473.332 385.252 473.247C385.709 473.149 386.164 473.094 386.618 472.963C386.164 472.831 385.709 472.776 385.252 472.679C384.791 472.625 384.452 472.505 384.126 472.291C383.499 471.857 383.133 471.172 383.15 470.41C383.14 469.25 382.38 468.157 381.351 467.79C380.861 467.583 380.257 467.603 379.835 467.688C379.379 467.782 378.923 467.838 378.468 467.968C378.923 468.099 379.379 468.155 379.835 468.251ZM368.172 506.622C367.716 506.563 367.374 506.446 367.046 506.227C366.42 505.804 366.049 505.117 366.077 504.343C366.063 503.261 365.393 502.224 364.454 501.817C364.41 502.197 364.367 502.547 364.34 502.896C364.723 503.292 364.951 503.816 364.937 504.372C364.923 505.482 365.635 506.636 366.647 507.029C367.133 507.264 367.73 507.277 368.172 507.191C368.628 507.087 369.085 507.029 369.54 506.899C369.085 506.768 368.628 506.709 368.172 506.622ZM428.881 459.984C429.363 460.039 429.695 460.136 430.031 460.341C430.669 460.739 431.076 461.442 431.068 462.164C431.05 463.279 431.757 464.433 432.776 464.83C433.263 465.053 433.853 465.066 434.299 464.978C434.755 464.884 435.21 464.827 435.666 464.696C435.21 464.564 434.755 464.508 434.299 464.413C433.837 464.36 433.498 464.24 433.172 464.024C432.545 463.591 432.179 462.905 432.196 462.144C432.186 460.985 431.426 459.89 430.397 459.524C429.908 459.316 429.304 459.336 428.881 459.421C428.425 459.515 427.97 459.572 427.514 459.702C427.97 459.832 428.425 459.889 428.881 459.984ZM455.395 505.48C455.877 505.533 456.207 505.63 456.545 505.836C457.183 506.234 457.589 506.937 457.581 507.658C457.565 508.774 458.272 509.929 459.288 510.323C459.776 510.55 460.366 510.56 460.813 510.474C461.268 510.378 461.724 510.322 462.18 510.19C461.724 510.06 461.268 510.002 460.813 509.908C460.351 509.853 460.011 509.734 459.687 509.519C459.057 509.087 458.693 508.4 458.71 507.638C458.698 506.478 457.94 505.384 456.911 505.018C456.422 504.809 455.818 504.829 455.395 504.915C454.939 505.011 454.483 505.068 454.028 505.196C454.483 505.326 454.939 505.383 455.395 505.48ZM401.546 420.809C402.029 420.865 402.36 420.963 402.696 421.166C403.336 421.566 403.741 422.268 403.734 422.99C403.715 424.105 404.423 425.259 405.441 425.656C405.928 425.88 406.518 425.893 406.966 425.805C407.42 425.71 407.875 425.653 408.331 425.522C407.875 425.391 407.42 425.335 406.966 425.238C406.503 425.185 406.164 425.065 405.839 424.85C405.21 424.418 404.844 423.731 404.861 422.971C404.851 421.811 404.091 420.717 403.063 420.351C402.574 420.14 401.969 420.162 401.546 420.247C401.092 420.342 400.634 420.399 400.18 420.529C400.634 420.659 401.092 420.716 401.546 420.809ZM463.045 339.083C463.526 339.137 463.858 339.235 464.195 339.44C464.835 339.84 465.239 340.542 465.232 341.265C465.215 342.378 465.922 343.533 466.941 343.929C467.425 344.154 468.017 344.165 468.463 344.079C468.919 343.983 469.375 343.927 469.83 343.796C469.375 343.665 468.919 343.609 468.463 343.513C468.001 343.457 467.663 343.337 467.337 343.124C466.71 342.691 466.344 342.004 466.36 341.243C466.351 340.084 465.59 338.99 464.562 338.623C464.072 338.414 463.468 338.436 463.045 338.521C462.589 338.616 462.134 338.672 461.678 338.801C462.134 338.933 462.589 338.988 463.045 339.083ZM413.667 340.144C414.15 340.198 414.48 340.294 414.818 340.5C415.457 340.9 415.861 341.603 415.854 342.322C415.836 343.438 416.542 344.593 417.561 344.988C418.049 345.214 418.639 345.224 419.086 345.138C419.541 345.042 419.995 344.986 420.453 344.855C419.995 344.725 419.541 344.668 419.086 344.571C418.623 344.517 418.284 344.398 417.96 344.184C417.331 343.751 416.964 343.064 416.981 342.302C416.971 341.144 416.212 340.049 415.183 339.682C414.694 339.473 414.09 339.495 413.667 339.58C413.211 339.675 412.756 339.732 412.301 339.862C412.756 339.99 413.211 340.049 413.667 340.144ZM493.888 387.142C494.371 387.196 494.702 387.292 495.038 387.498C495.678 387.897 496.083 388.599 496.076 389.321C496.057 390.435 496.764 391.59 497.783 391.986C498.27 392.209 498.86 392.222 499.306 392.135C499.762 392.04 500.217 391.984 500.673 391.853C500.217 391.721 499.762 391.664 499.306 391.57C498.845 391.516 498.505 391.396 498.18 391.18C497.552 390.747 497.186 390.062 497.203 389.3C497.193 388.141 496.433 387.047 495.404 386.68C494.916 386.471 494.311 386.492 493.888 386.578C493.432 386.671 492.976 386.728 492.521 386.858C492.976 386.988 493.432 387.045 493.888 387.142ZM462.509 474.553C462.992 474.609 463.324 474.706 463.66 474.909C464.299 475.31 464.704 476.012 464.696 476.733C464.679 477.849 465.386 479.003 466.405 479.399C466.893 479.623 467.482 479.636 467.929 479.549C468.383 479.454 468.839 479.397 469.294 479.266C468.839 479.134 468.383 479.079 467.929 478.982C467.467 478.928 467.126 478.808 466.801 478.594C466.174 478.161 465.808 477.475 465.824 476.713C465.815 475.555 465.054 474.461 464.027 474.094C463.536 473.884 462.932 473.906 462.509 473.989C462.054 474.085 461.6 474.142 461.142 474.272C461.6 474.402 462.054 474.46 462.509 474.553ZM435.934 381.865C436.388 381.734 436.843 381.678 437.3 381.583C437.724 381.499 438.328 381.478 438.817 381.686C439.846 382.052 440.605 383.148 440.615 384.306C440.598 385.068 440.964 385.753 441.593 386.187C441.918 386.401 442.257 386.521 442.719 386.575C443.175 386.671 443.629 386.727 444.085 386.858C443.629 386.99 443.175 387.045 442.719 387.143C442.271 387.228 441.683 387.216 441.195 386.993C440.176 386.597 439.469 385.443 439.488 384.327C439.495 383.606 439.09 382.902 438.45 382.503C438.113 382.298 437.782 382.203 437.3 382.147C436.843 382.051 436.388 381.995 435.934 381.865Z" fill="white"/>
<path d="M390.56 358.575C388.987 364.404 387.467 370.239 386 376.087C386.191 373.535 386.461 370.99 386.782 368.453C386.801 368.301 386.577 368.237 386.547 368.395C385.914 371.554 385.608 374.749 385.524 377.959C383.769 385.012 382.103 392.087 380.576 399.202C377.644 412.84 375.039 426.576 372.882 440.355C371.663 448.126 370.72 455.95 369.423 463.704C369.397 463.85 369.622 463.907 369.647 463.76C370.837 456.883 372.417 450.039 373.879 443.211C375.333 436.427 376.742 429.633 378.117 422.833C380.881 409.16 383.806 395.52 386.554 381.843C388.103 374.138 389.545 366.412 391.1 358.709C391.17 358.363 390.653 358.232 390.56 358.575Z" fill="#17282F"/>
<path d="M383.878 267.612C385.774 278.247 379.932 288.25 370.827 289.955C361.723 291.66 352.805 284.421 350.908 273.787C349.011 263.152 354.854 253.15 363.959 251.444C373.064 249.739 381.981 256.978 383.878 267.612Z" fill="#33535F"/>
<path d="M389.34 267.284C391.449 279.113 384.948 290.242 374.821 292.139C364.693 294.036 354.771 285.982 352.661 274.152C350.552 262.321 357.052 251.193 367.18 249.296C377.308 247.399 387.229 255.453 389.34 267.284Z" fill="#BEBFBD"/>
<path d="M418.222 350.747C428.539 350.686 441.67 331.244 445.353 317.217C445.601 316.255 434.122 283.152 432.513 276.35C432.19 274.952 393.339 297.061 393.339 297.061C393.339 297.061 400.805 310.301 403.541 322.177C403.759 323.173 408.25 350.8 418.222 350.747Z" fill="#F25553"/>
<path d="M408.299 324.687C406.833 325.081 405.479 325.359 404.182 325.459C404.01 324.629 403.869 323.926 403.769 323.386L403.755 323.314L403.725 323.124C403.684 322.92 403.654 322.701 403.597 322.48L403.57 322.349L403.527 322.174C402.928 319.576 402.102 316.918 401.19 314.347C399.08 308.447 396.444 303.013 394.834 299.875C394.633 299.479 394.449 299.13 394.276 298.824C393.765 297.845 393.437 297.246 393.366 297.099L393.336 297.071H393.352C393.437 297.013 393.793 296.807 394.378 296.472C394.747 296.268 395.204 296.004 395.746 295.697L395.803 295.669C396.088 295.508 396.401 295.332 396.713 295.157C397.07 294.954 397.442 294.749 397.839 294.515C398.168 294.34 398.525 294.136 398.881 293.93L399.08 293.813C399.507 293.579 399.964 293.331 400.434 293.055L400.746 292.88C401.19 292.632 401.644 292.383 402.102 292.119C402.33 291.987 402.572 291.858 402.814 291.726C403.527 291.33 404.252 290.923 405.009 290.499C405.563 290.193 406.12 289.886 406.689 289.563C407.159 289.302 407.644 289.039 408.114 288.775C409.71 287.885 411.351 286.98 412.988 286.088C413.515 285.797 414.044 285.505 414.557 285.213C416.479 284.161 418.376 283.139 420.186 282.175C420.599 281.956 420.997 281.737 421.397 281.533C421.668 281.387 421.939 281.239 422.194 281.109C422.523 280.934 422.835 280.773 423.149 280.598C423.861 280.218 424.547 279.868 425.202 279.532C425.629 279.313 426.056 279.094 426.455 278.889C427.068 278.567 427.639 278.289 428.18 278.028C428.452 277.882 428.721 277.765 428.963 277.648C429.706 277.283 430.347 276.991 430.874 276.77L431.215 276.626V276.64C431.7 288.161 430.802 318.523 408.299 324.687Z" fill="#17282F"/>
<path d="M420.858 225.108C430.057 238.372 436.32 283.627 429.166 296.637C418.793 315.5 394.897 325.126 377.514 310.729C360.662 296.773 353.516 237.648 362.153 225.096C374.874 206.606 407.268 205.515 420.858 225.108Z" fill="#F25553"/>
<path d="M387.918 265.052L388.186 265.287C388.528 268.347 389.423 271.793 392.257 272.399L392.256 272.573C388.907 272.594 387.764 268.008 387.918 265.052Z" fill="#17282F"/>
<path d="M390.116 261.471C394.845 260.38 396.628 270.15 392.248 271.161C387.936 272.155 386.155 262.387 390.116 261.471Z" fill="#17282F"/>
<path d="M371.694 268.633L371.514 268.943C372.16 271.951 372.406 275.507 369.918 277.024L369.974 277.188C373.146 276.094 372.775 271.376 371.694 268.633Z" fill="#17282F"/>
<path d="M368.479 265.977C363.662 266.517 365.071 276.35 369.533 275.849C373.925 275.357 372.517 265.523 368.479 265.977Z" fill="#17282F"/>
<path d="M393.065 256.284C391.705 256.199 390.466 255.887 389.129 255.659C387.621 255.402 386.395 255.357 385.234 254.238C384.611 253.636 384.591 252.348 385.103 251.675C386.296 250.104 388.217 249.948 390.045 250.181C392.027 250.434 393.492 251.149 394.869 252.626C396.206 254.057 394.858 256.398 393.065 256.284Z" fill="#17282F"/>
<path d="M363.895 261.763C365.175 261.29 366.28 260.635 367.499 260.031C368.876 259.349 370.041 258.954 370.848 257.544C371.281 256.789 370.948 255.548 370.272 255.047C368.695 253.883 366.808 254.286 365.118 255.037C363.285 255.85 362.076 256.959 361.157 258.773C360.268 260.531 362.206 262.388 363.895 261.763Z" fill="#17282F"/>
<path d="M396.552 292.427C395.973 293.271 395.446 294.381 394.39 294.679C393.38 294.964 392.087 294.72 391.078 294.527L390.979 294.707C391.956 295.72 393.702 296.139 395.027 295.63C396.32 295.136 396.764 293.825 396.861 292.509C396.874 292.325 396.636 292.303 396.552 292.427Z" fill="#17282F"/>
<path d="M391.796 283.961C390.621 286.904 388.452 288.807 385.92 289.832C384.791 290.298 383.564 290.577 382.335 290.695C382.097 290.734 381.853 290.753 381.628 290.745C381.408 290.761 381.207 290.771 380.964 290.767C380.609 290.781 380.366 290.526 380.247 290.204L380.244 290.181L380.214 289.865L380.21 289.844L380.167 289.578C379.68 287.259 379.253 283.673 379.253 283.673C378.501 284.259 374.622 287.024 374.467 285.792C373.215 275.603 371.824 264.271 372.678 253.86C372.689 253.517 373.198 253.498 373.232 253.835C374.813 263.579 374.71 273.543 376.147 283.357C377.402 282.572 379.429 281.175 380.623 280.97C380.964 281.004 381.326 287.916 381.625 288.938L381.666 289.048C385.577 288.815 388.24 287.082 391.469 283.742C391.657 283.527 391.928 283.687 391.796 283.961Z" fill="#17282F"/>
<path d="M383.46 289.255C383.46 289.255 385.984 291.657 388.928 292.135C390.013 292.313 391.136 292.252 392.226 291.719C394.469 290.631 394.123 288.402 393.343 286.587C392.709 285.094 391.757 283.885 391.757 283.885C391.757 283.885 388.917 287.847 383.46 289.255Z" fill="#17282F"/>
<path d="M388.928 292.135C390.013 292.313 391.136 292.252 392.226 291.719C394.469 290.631 394.123 288.402 393.343 286.587C390.865 287.338 388.683 289.575 388.928 292.135Z" fill="#F577B8"/>
<mask id="mask0_8_1401" style="mask-type:luminance" maskUnits="userSpaceOnUse" x="410" y="215" width="21" height="43">
<path d="M430.737 257.166C430.699 257.163 430.661 257.159 430.621 257.152C429.102 246.955 426.632 237.087 423.667 230.316C426.872 237.382 429.155 246.815 430.737 257.166ZM420.623 224.773C417.928 220.995 414.525 218.003 410.698 215.775C413.898 217.59 416.615 219.773 419.088 222.726C419.616 223.358 420.128 224.042 420.623 224.773Z" fill="white"/>
</mask>
<g mask="url(#mask0_8_1401)">
<path d="M410.698 257.166H430.737V215.775H410.698V257.166Z" fill="#CBD1D0"/>
</g>
<path d="M430.621 257.152C428.342 256.74 422.086 247.853 419.202 244.103C416.088 240.11 411.493 219.64 410.674 215.761C410.682 215.766 410.689 215.77 410.698 215.775C414.524 218.003 417.928 220.995 420.622 224.773C421.718 226.396 422.732 228.256 423.666 230.316C426.632 237.087 429.102 246.955 430.621 257.152Z" fill="#D04F4C"/>
<path d="M376.362 235.144C379.987 238.57 385.094 239.953 389.876 238.581C394.533 237.245 398.871 233.343 400.056 228.435C400.091 228.288 400.314 228.344 400.278 228.492C399.011 233.74 395.482 238.349 390.203 239.723C385.246 241.014 379.576 239.265 376.12 235.408C375.967 235.237 376.194 234.984 376.362 235.144Z" fill="#17282F"/>
<path d="M387.111 197.523C395.361 196.757 403.43 200.553 407.071 205.952C409.283 209.232 409.947 212.744 409.79 216.413C409.785 216.56 409.487 216.565 409.482 216.416C409.328 210.652 405.86 204.464 399.453 201.168C393.296 198 385.554 197.694 379.242 201.014C375.947 202.746 373.405 205.308 372.275 208.2C372.148 208.524 371.511 208.397 371.608 208.068C373.259 202.546 379.647 198.215 387.111 197.523Z" fill="#17282F"/>
<path d="M341.324 221.323C342.166 217.02 344.605 213.133 347.958 210.431C352.655 206.644 358.417 206.457 364.145 206.395C364.301 206.393 364.305 206.638 364.15 206.641C359.273 206.713 354.331 207.077 350.151 209.914C346.745 212.227 344.066 215.738 342.879 219.763C340.413 228.118 344.654 237.637 352.514 241.064C356.964 243.003 362.202 242.948 366.604 240.909C366.778 240.829 366.94 241.085 366.763 241.172C358.741 245.152 348.481 242.386 343.772 234.516C341.448 230.631 340.443 225.815 341.324 221.323Z" fill="#17282F"/>
<path d="M425.459 234.777C425.459 234.777 431.55 218.765 424.022 210.818C419.757 206.316 407.556 208.441 407.556 208.441C407.556 208.441 402.77 201.68 392.327 200.519C381.774 199.344 370.262 206.963 370.262 206.963C370.262 206.963 359.848 202.411 351.32 208.863C339.429 217.86 343.301 237.564 356.862 242.418C366.385 245.825 377.681 236.182 377.681 236.182C378.877 236.205 391.775 242.197 399.616 230.089C399.616 230.089 407.792 235.94 413.893 230.415C413.893 230.415 418.04 236.851 425.459 234.777Z" fill="#17282F"/>
<path d="M382.277 265.867C382.653 272.148 387.946 276.947 394.078 276.565C400.206 276.188 404.889 270.755 404.517 264.474C404.138 258.192 398.847 253.393 392.717 253.777C391.771 253.835 390.859 254.015 389.995 254.3C385.26 255.855 381.962 260.554 382.277 265.867ZM394.181 278.323C387.104 278.765 380.995 273.225 380.561 265.974C380.129 258.722 385.533 252.461 392.612 252.018C399.689 251.575 405.797 257.114 406.232 264.367C406.598 270.5 402.787 275.923 397.323 277.72C396.326 278.048 395.274 278.254 394.181 278.323Z" fill="#FABB1E"/>
<path d="M358.151 263.713C357.047 266.149 356.759 269.166 357.339 272.208C358.523 278.384 362.939 282.716 367.189 281.863C371.454 281.011 373.935 275.291 372.757 269.112C372.174 266.072 370.796 263.389 368.878 261.559C367.032 259.802 364.912 259.056 362.907 259.459C362.691 259.503 362.48 259.558 362.274 259.626C360.544 260.194 359.097 261.622 358.151 263.713ZM367.518 283.593C362.339 284.63 357.018 279.675 355.654 272.546C355.003 269.143 355.334 265.743 356.589 262.971C357.887 260.105 360.005 258.24 362.576 257.73C365.137 257.214 367.792 258.117 370.048 260.271C372.232 262.349 373.793 265.371 374.443 268.775C375.732 275.522 373.02 281.836 368.335 283.377C368.068 283.465 367.796 283.536 367.518 283.593Z" fill="#FABB1E"/>
<path d="M381.271 267.386L382.102 265.844C379.874 264.581 375.025 263.255 372.591 267.252L374.047 268.185C376.223 264.6 381.067 267.274 381.271 267.386Z" fill="#FABB1E"/>
<path d="M438.132 259.425L439.479 258.332C438.98 257.689 434.5 252.048 430.612 252.176C426.981 252.308 404.781 259.019 403.839 259.304L404.328 260.994C410.691 259.063 427.862 254.031 430.668 253.939C433.234 253.853 436.925 257.872 438.132 259.425Z" fill="#FABB1E"/>
<path d="M423.266 262.91C423.266 262.91 428.524 246.007 435.722 247.509C442.922 249.01 441.907 271.406 435.527 276.461C429.146 281.514 424.464 275.552 424.464 275.552L423.266 262.91Z" fill="#F25553"/>
<path d="M435.276 253.92L435.375 254.107C430.953 257.821 429.747 263.478 429.396 269.06C430.317 266.66 432.047 264.956 435.114 265.991C435.275 266.045 435.212 266.298 435.061 266.313C432.849 266.517 431.466 267.363 430.582 269.511C429.956 271.031 429.741 272.77 429.453 274.389C429.358 274.927 428.466 274.941 428.474 274.351L428.48 274.218C426.345 267.646 428.551 256.795 435.276 253.92Z" fill="#17282F"/>
<path d="M431.221 250.114C431.221 250.114 430.196 226.482 422.082 214.311C413.05 200.762 388.112 191.685 370.263 206.963C370.263 206.963 396.181 200.064 413.147 216.381C420.948 223.884 423.647 251.612 423.647 251.612L431.221 250.114Z" fill="#BEBFBD"/>
<path d="M411.074 264.418C412.258 276.383 421.521 285.222 431.765 284.156C442.008 283.091 449.353 272.528 448.169 260.563C446.985 248.598 437.72 239.761 427.475 240.826C417.233 241.891 409.888 252.454 411.074 264.418Z" fill="#BEBFBD"/>
<path d="M416.41 263.179C417.474 273.934 425.801 281.877 435.008 280.919C444.216 279.963 450.818 270.467 449.754 259.712C448.689 248.957 440.361 241.014 431.154 241.971C421.945 242.929 415.345 252.423 416.41 263.179Z" fill="#33535F"/>
<path d="M472.491 326.996C500.113 357.31 565.814 471.071 544.511 492.048C523.059 513.173 404.993 484.787 371.786 468.575C361.908 463.755 399.444 400.644 411.054 399.169C415.726 398.577 429.682 403.681 443.018 408.785C457.277 414.242 470.827 419.699 471.566 418.194C473.181 414.902 461.958 393.772 450.07 349.776C436.361 299.047 460.293 313.606 472.491 326.996Z" fill="#F25553"/>
<path d="M361.978 378.801C337.973 375.374 331.295 378.27 312.532 364.352C300.219 355.219 289.244 359.356 296.269 373.868C307.758 397.605 337.826 408.691 349.331 409.459L361.978 378.801Z" fill="#F25553"/>
<path d="M425.748 402.485C425.748 402.485 398.774 387.134 373.543 380.888C356.092 376.569 317.11 371.51 279.811 410.927C270.964 420.277 264.828 440.027 284.689 430.135C298.796 423.11 305.673 414.286 314.604 411.73C314.604 411.73 309.71 437.802 319.194 446.52C323.432 450.414 335.247 460.77 345.567 467.486C345.567 467.486 347.599 465.578 349.838 462.782C349.838 462.782 359.448 470.067 377.54 468.301L425.748 402.485Z" fill="#F25553"/>
<path d="M356.247 379.491C347.905 383.949 330.379 393.7 318.749 406.788C305.831 421.325 284.773 452.893 295.341 462.555C303.091 469.639 312.166 458.309 312.166 458.309C312.166 458.309 306.146 473.239 314.513 478.068C322.136 482.47 328.644 473.274 328.644 473.274C328.644 473.274 326.512 482.975 334.653 485.764C344.444 489.121 347.306 468.241 360.092 462.858C362.962 461.649 356.247 379.491 356.247 379.491Z" fill="#F25553"/>
<path d="M336.014 418.213C328.837 423.722 315.677 440.522 312.036 457.922C311.954 458.318 312.201 458.592 312.35 458.249C320.33 439.964 331.166 424.581 336.147 418.337L336.014 418.213Z" fill="#17282F"/>
<path d="M349.953 432C344.24 437.41 331.43 455.345 328.33 473.107C328.262 473.503 328.528 473.763 328.662 473.414C336.231 453.956 345.486 438.657 350.094 432.117L349.953 432Z" fill="#17282F"/>
<path d="M314.598 411.567C306.776 413.927 301.687 417.861 295.084 422.56C291.816 424.883 288.506 427.16 285.004 429.1C281.816 430.867 277.116 433.536 273.723 430.771C271.834 429.232 271.861 426.429 272.281 424.221C272.753 421.74 273.679 419.354 275.116 417.296L274.938 417.161C273.612 418.993 272.471 420.941 271.701 423.088C271.004 425.03 270.46 427.289 270.996 429.345C272.144 433.766 277.232 434.347 280.835 433.132C282.991 432.405 285.03 431.231 286.992 430.077C288.889 428.961 290.733 427.754 292.545 426.5C296.264 423.924 299.835 421.133 303.525 418.515C307.578 415.637 310.378 414.229 314.716 411.835C314.863 411.754 314.755 411.52 314.598 411.567Z" fill="#17282F"/>
<path d="M298.216 439.776C300.239 435.204 311.203 416.164 314.76 411.758L314.597 411.6C308.501 417.523 298.7 433.259 296.414 438.299C294.158 443.28 291.559 449.647 291.558 455.201C291.556 463.578 296.979 465.166 298.984 465.576C301.377 466.065 303.792 465.55 305.941 464.409C308.332 463.14 310.645 460.506 312.247 458.337L312.086 458.178C309.253 461.478 304.547 464.735 300.104 464.138C298.177 463.879 296.226 462.978 295.049 461.342C293.665 459.419 293.556 456.888 293.742 454.596C294.167 449.404 296.136 444.47 298.216 439.776Z" fill="#17282F"/>
<path d="M328.33 473.107C327.193 474.105 324.847 477.577 321.122 478.321C318.4 478.864 315.55 478.6 313.456 476.565C311.409 474.575 310.64 471.762 310.514 468.948C310.442 467.356 311.682 460.479 312.225 458.404C312.268 458.242 312.07 458.167 312.02 458.322C310.84 462.019 309.566 466.043 309.564 469.664C309.563 472.678 310.492 475.911 312.694 478.014C314.973 480.19 318.315 480.961 321.25 479.834C322.707 479.276 327.307 476.256 328.644 473.274L328.33 473.107Z" fill="#17282F"/>
<path d="M359.317 461.354C358.033 462.131 356.922 463.295 355.851 464.349C354.706 465.481 353.597 466.66 352.518 467.857C350.358 470.254 348.489 472.997 346.862 475.796C345.212 478.639 343.69 481.806 340.998 483.781C338.36 485.716 334.736 486.023 332.048 484.009C330.649 482.959 329.705 481.468 329.252 479.761C328.787 478.002 328.477 475.858 328.732 474.045C328.756 473.882 328.525 473.855 328.512 474.022C328.378 475.785 327.911 477.424 328.112 479.213C328.289 480.787 328.787 482.343 329.714 483.625C331.611 486.25 334.971 487.401 338.061 486.821C341.475 486.178 343.979 483.544 345.833 480.701C347.898 477.532 349.6 474.155 351.806 471.073C352.964 469.453 354.106 467.818 355.377 466.286C356.699 464.692 358.287 463.266 359.507 461.592C359.602 461.458 359.475 461.26 359.317 461.354Z" fill="#17282F"/>
<path d="M368.885 468.501C366.315 468.273 360.392 467.26 355.718 465.703C355.581 465.656 355.389 466.052 355.514 466.123C357.259 467.108 360.907 468.089 362.007 468.32C364.203 468.777 366.607 468.981 368.85 468.748C368.976 468.733 369.034 468.512 368.885 468.501Z" fill="#17282F"/>
<path d="M516.273 440.319C509.383 435.492 502.033 431.345 494.539 427.592C487.117 423.875 479.339 420.992 471.474 418.435C466.981 416.975 462.435 415.742 457.887 414.473C457.748 414.435 457.696 414.653 457.833 414.696C465.767 417.137 473.529 420.301 481.129 423.659C488.699 427.006 496.198 430.483 503.644 434.114C507.855 436.165 511.97 438.422 516.112 440.618C516.305 440.722 516.447 440.441 516.273 440.319Z" fill="#17282F"/>
<path d="M529.062 398.495L462.017 396.221C462.017 396.221 449.538 362.306 444.787 332.139C440.035 301.969 464.151 311.178 489.325 343.478C514.499 375.775 529.062 398.495 529.062 398.495Z" fill="#FABB1E"/>
<path d="M499.31 391.573C498.838 391.514 498.511 391.397 498.183 391.177C497.556 390.753 497.185 390.068 497.2 389.293C497.185 388.139 496.43 387.044 495.404 386.679C494.919 386.476 494.307 386.489 493.893 386.578C493.437 386.679 492.981 386.723 492.525 386.854C492.981 386.986 493.437 387.044 493.893 387.148C494.364 387.192 494.706 387.294 495.035 387.498C495.675 387.891 496.088 388.594 496.074 389.324C496.06 390.434 496.758 391.587 497.784 391.982C498.268 392.214 498.853 392.23 499.31 392.141C499.765 392.04 500.221 391.982 500.677 391.849C500.221 391.717 499.765 391.659 499.31 391.573ZM468.47 343.511C467.999 343.453 467.659 343.336 467.33 343.132C466.704 342.694 466.348 342.006 466.361 341.248C466.348 340.08 465.591 338.984 464.566 338.619C464.066 338.413 463.468 338.428 463.04 338.517C462.584 338.619 462.128 338.678 461.672 338.809C462.128 338.926 462.584 338.984 463.04 339.085C463.525 339.143 463.854 339.233 464.194 339.437C464.836 339.846 465.235 340.545 465.235 341.262C465.222 342.371 465.919 343.539 466.946 343.935C467.429 344.154 468.015 344.169 468.47 344.08C468.911 343.979 469.367 343.935 469.824 343.804C469.367 343.672 468.911 343.614 468.47 343.511ZM514.871 377.757C514.358 377.743 513.887 377.524 513.545 377.159C512.79 376.355 511.493 376.063 510.496 376.515C509.998 376.706 509.569 377.128 509.313 377.509C509.056 377.917 508.771 378.282 508.543 378.705C508.957 378.473 509.313 378.181 509.712 377.917C510.068 377.61 510.396 377.451 510.768 377.378C511.508 377.217 512.25 377.451 512.762 377.991C513.474 378.721 514.586 378.97 515.513 378.677C515.313 378.385 515.1 378.079 514.871 377.757ZM467.073 320.613C467.073 320.788 467.087 320.947 467.116 321.109C467.216 321.56 467.258 322.029 467.387 322.497C467.515 322.029 467.572 321.56 467.672 321.109V321.079C467.472 320.903 467.273 320.759 467.073 320.613ZM490.63 358.393C490.53 357.925 490.473 357.457 490.345 356.991C490.218 357.457 490.161 357.925 490.074 358.393C490.017 358.873 489.932 359.224 489.732 359.561C489.334 360.218 488.649 360.642 487.951 360.626C486.853 360.613 485.728 361.328 485.343 362.38C485.129 362.875 485.116 363.475 485.2 363.942C485.286 364.408 485.343 364.877 485.472 365.344C485.599 364.877 485.656 364.408 485.756 363.942C485.799 363.46 485.927 363.123 486.128 362.789C486.554 362.144 487.224 361.766 487.966 361.779C489.092 361.766 490.161 360.991 490.517 359.941C490.73 359.444 490.701 358.816 490.63 358.393ZM469.481 371.024C469.111 371.317 468.797 371.478 468.413 371.565C467.672 371.71 466.946 371.492 466.432 370.937C465.619 370.134 464.323 369.901 463.354 370.397C462.855 370.6 462.442 371.054 462.199 371.419C461.943 371.814 461.659 372.179 461.43 372.602C461.843 372.367 462.199 372.075 462.598 371.814C462.97 371.507 463.268 371.33 463.653 371.23C464.38 371.054 465.149 371.259 465.648 371.768C466.403 372.573 467.7 372.88 468.683 372.426C469.182 372.223 469.61 371.814 469.866 371.419C470.123 371.024 470.408 370.659 470.636 370.235C470.223 370.47 469.866 370.762 469.481 371.024Z" fill="white"/>
<path d="M464.774 395.987C464.414 395.984 462.054 395.562 462.044 395.562C461.877 394.661 458.051 380.487 457.046 377.402C455 371.118 452.59 364.938 450.267 358.758C450.194 358.561 449.899 358.647 449.959 358.853C451.471 364.17 452.891 369.525 454.445 374.832C453.976 374.08 453.515 373.324 453.07 372.553C452.164 370.978 451.37 369.344 450.522 367.736C450.445 367.592 450.224 367.7 450.27 367.853C450.934 370.084 452.026 372.199 453.227 374.174C453.743 375.023 454.344 375.827 454.968 376.601C455.101 377.042 455.226 377.484 455.362 377.925C456.312 381.027 461.223 396.373 461.474 396.389C461.535 396.392 463.958 396.447 464.707 396.453C464.893 396.455 464.961 395.989 464.774 395.987Z" fill="#17282F"/>
<path d="M518.21 385.194C503.753 384.087 489.195 384.014 474.677 384.236C470.571 384.298 466.462 384.46 462.361 384.72L462.347 384.907C469.578 385.305 476.823 385.398 484.069 385.535C491.333 385.673 498.608 385.75 505.878 385.678C509.983 385.636 514.085 385.601 518.189 385.474C518.364 385.468 518.391 385.205 518.21 385.194Z" fill="#17282F"/>
<path d="M286.072 517.173H296.309V510.323H286.072V517.173Z" fill="#33535F"/>
<path d="M272.797 516.72H283.033V509.871H272.797V516.72Z" fill="#33535F"/>
<path d="M259.522 516.267H269.759V509.418H259.522V516.267Z" fill="#33535F"/>
<path d="M246.248 515.815H256.485V508.967H246.248V515.815Z" fill="#33535F"/>
<path d="M232.973 515.361H243.209V508.513H232.973V515.361Z" fill="#33535F"/>
<path d="M219.698 514.909H229.935V508.06H219.698V514.909Z" fill="#33535F"/>
<path d="M206.424 514.457H216.66V507.608H206.424V514.457Z" fill="#33535F"/>
<path d="M193.148 514.003H203.385V507.155H193.148V514.003Z" fill="#33535F"/>
<path d="M179.874 513.551H190.112V506.703H179.874V513.551Z" fill="#33535F"/>
<path d="M177.369 521.111H298.814V512.777L177.369 509.307V521.111Z" fill="#273E47"/>
<path d="M58.8351 488.248H259.323L227.44 335.294H26.9502L58.8351 488.248Z" fill="#33535F"/>
<path d="M51.418 488.248H251.907L220.023 335.294H19.5342L51.418 488.248Z" fill="#273E47"/>
<path d="M118.395 402.906C119.479 409.924 125.908 415.612 132.754 415.612C139.6 415.612 144.271 409.924 143.186 402.906C142.103 395.892 135.673 390.204 128.827 390.204C121.981 390.204 117.31 395.892 118.395 402.906Z" fill="#17282F"/>
<path d="M108.121 528.196H206.727V520.348L108.121 517.081V528.196Z" fill="#33535F"/>
<path d="M81.3115 528.184H134.254L166.137 442.476H113.196L81.3115 528.184Z" fill="#33535F"/>
<path d="M72.5977 528.184H125.54L157.425 442.476H104.482L72.5977 528.184Z" fill="#17282F"/>
<path d="M302.563 530.28C302.563 530.28 395.545 530.28 404.224 530.28C412.902 530.28 400.346 504.964 368.683 495.252C337.022 485.539 292.576 520.783 302.563 530.28Z" fill="#273E47"/>
<path d="M342.455 530.28C341.838 527.489 340.973 524.793 339.997 522.165C338.992 519.544 337.811 517.006 336.397 514.62C335.035 512.195 333.325 510.005 331.461 507.969L330.017 506.474L328.441 505.12C327.444 504.123 326.204 503.485 325.104 502.576C327.64 503.728 330.185 505.125 332.233 507.149C334.334 509.094 336.179 511.359 337.617 513.865C339.062 516.364 340.231 519.026 341.046 521.793C341.867 524.552 342.383 527.412 342.455 530.28Z" fill="#17282F"/>
<path d="M330.411 506.19C329.019 506.959 327.622 507.691 326.261 508.497C324.882 509.262 323.515 510.046 322.173 510.868C319.492 512.519 316.824 514.182 314.306 516.05C311.765 517.883 309.361 519.904 307.219 522.175C306.155 523.32 305.183 524.552 304.38 525.902C303.54 527.227 302.921 528.701 302.563 530.28C302.599 528.651 303.102 527.052 303.768 525.56C304.477 524.08 305.391 522.715 306.396 521.434C308.432 518.886 310.902 516.761 313.48 514.863C316.078 512.98 318.814 511.321 321.651 509.885C324.489 508.45 327.393 507.155 330.411 506.19Z" fill="#17282F"/>
<path d="M493.435 469.661L487.402 547.404H445.664L439.632 469.661H493.435Z" fill="#FABB1E"/>
<path d="M487.402 547.404H445.664L442.968 512.652L442.93 512.158L439.632 469.661H493.435L491.206 498.389L490.137 512.158L487.402 547.404Z" fill="#F4AC12"/>
<path d="M497.029 473.978H435.683V462.644H497.029V473.978Z" fill="#33535F"/>
<path d="M492.825 462.644H439.887L442.981 449.909H489.731L492.825 462.644Z" fill="#273E47"/>
<path d="M481.023 509.215C481.023 519.311 474.536 527.492 466.533 527.492C458.53 527.492 452.044 519.311 452.044 509.215C452.044 499.122 458.53 490.941 466.533 490.941C474.536 490.941 481.023 499.122 481.023 509.215Z" fill="white"/>
</g>
<defs>
<clipPath id="clip0_8_1401">
<rect width="609" height="564" fill="white"/>
</clipPath>
</defs>
</svg>
