<svg width="65" height="64" viewBox="0 0 65 64" fill="none" xmlns="http://www.w3.org/2000/svg">
<rect x="0.5" width="64" height="64" rx="5" fill="#F7F7F8"/>
<g clip-path="url(#clip0_8_133)">
<path d="M17.8024 9.41187H45.1689C46.6205 9.41187 48.0127 10.0068 49.0391 11.0659C50.0656 12.1249 50.6422 13.5612 50.6422 15.0589V48.9413C50.6422 50.439 50.0656 51.8753 49.0391 52.9343C48.0127 53.9934 46.6205 54.5883 45.1689 54.5883H17.8024C16.3508 54.5883 14.9586 53.9934 13.9322 52.9343C12.9058 51.8753 12.3291 50.439 12.3291 48.9413V46.1177H15.0658V48.9413C15.0658 49.6901 15.3541 50.4083 15.8673 50.9378C16.3805 51.4673 17.0766 51.7648 17.8024 51.7648H45.1689C45.8947 51.7648 46.5908 51.4673 47.104 50.9378C47.6172 50.4083 47.9056 49.6901 47.9056 48.9413V15.0589C47.9056 14.3101 47.6172 13.5919 47.104 13.0624C46.5908 12.5329 45.8947 12.2354 45.1689 12.2354H17.8024C17.0766 12.2354 16.3805 12.5329 15.8673 13.0624C15.3541 13.5919 15.0658 14.3101 15.0658 15.0589V17.8825H12.3291V15.0589C12.3291 13.5612 12.9058 12.1249 13.9322 11.0659C14.9586 10.0068 16.3508 9.41187 17.8024 9.41187V9.41187Z" fill="black"/>
<path d="M12.3294 23.5296V22.1178C12.3294 21.7434 12.4736 21.3843 12.7302 21.1196C12.9868 20.8548 13.3348 20.7061 13.6978 20.7061C14.0607 20.7061 14.4087 20.8548 14.6653 21.1196C14.9219 21.3843 15.0661 21.7434 15.0661 22.1178V23.5296H16.4344C16.7973 23.5296 17.1453 23.6783 17.402 23.9431C17.6586 24.2078 17.8027 24.5669 17.8027 24.9413C17.8027 25.3158 17.6586 25.6749 17.402 25.9396C17.1453 26.2044 16.7973 26.3531 16.4344 26.3531H10.9611C10.5982 26.3531 10.2502 26.2044 9.99355 25.9396C9.73694 25.6749 9.59277 25.3158 9.59277 24.9413C9.59277 24.5669 9.73694 24.2078 9.99355 23.9431C10.2502 23.6783 10.5982 23.5296 10.9611 23.5296H12.3294ZM12.3294 32.0002V30.5884C12.3294 30.214 12.4736 29.8549 12.7302 29.5901C12.9868 29.3254 13.3348 29.1766 13.6978 29.1766C14.0607 29.1766 14.4087 29.3254 14.6653 29.5901C14.9219 29.8549 15.0661 30.214 15.0661 30.5884V32.0002H16.4344C16.7973 32.0002 17.1453 32.1489 17.402 32.4137C17.6586 32.6784 17.8027 33.0375 17.8027 33.4119C17.8027 33.7864 17.6586 34.1455 17.402 34.4102C17.1453 34.675 16.7973 34.8237 16.4344 34.8237H10.9611C10.5982 34.8237 10.2502 34.675 9.99355 34.4102C9.73694 34.1455 9.59277 33.7864 9.59277 33.4119C9.59277 33.0375 9.73694 32.6784 9.99355 32.4137C10.2502 32.1489 10.5982 32.0002 10.9611 32.0002H12.3294ZM12.3294 40.4708V39.059C12.3294 38.6846 12.4736 38.3255 12.7302 38.0607C12.9868 37.796 13.3348 37.6472 13.6978 37.6472C14.0607 37.6472 14.4087 37.796 14.6653 38.0607C14.9219 38.3255 15.0661 38.6846 15.0661 39.059V40.4708H16.4344C16.7973 40.4708 17.1453 40.6195 17.402 40.8843C17.6586 41.149 17.8027 41.5081 17.8027 41.8825C17.8027 42.257 17.6586 42.616 17.402 42.8808C17.1453 43.1456 16.7973 43.2943 16.4344 43.2943H10.9611C10.5982 43.2943 10.2502 43.1456 9.99355 42.8808C9.73694 42.616 9.59277 42.257 9.59277 41.8825C9.59277 41.5081 9.73694 41.149 9.99355 40.8843C10.2502 40.6195 10.5982 40.4708 10.9611 40.4708H12.3294Z" fill="black"/>
<path fill-rule="evenodd" clip-rule="evenodd" d="M39.2983 26.7651C39.4257 26.8962 39.5268 27.052 39.5958 27.2235C39.6648 27.3951 39.7003 27.5789 39.7003 27.7646C39.7003 27.9503 39.6648 28.1342 39.5958 28.3057C39.5268 28.4772 39.4257 28.633 39.2983 28.7642L31.0883 37.2347C30.9612 37.3662 30.8102 37.4705 30.644 37.5417C30.4778 37.6129 30.2995 37.6495 30.1196 37.6495C29.9396 37.6495 29.7614 37.6129 29.5951 37.5417C29.4289 37.4705 29.2779 37.3662 29.1508 37.2347L25.0458 32.9995C24.9186 32.8682 24.8177 32.7124 24.7488 32.5409C24.68 32.3694 24.6445 32.1856 24.6445 31.9999C24.6445 31.8143 24.68 31.6305 24.7488 31.459C24.8177 31.2875 24.9186 31.1317 25.0458 31.0004C25.173 30.8691 25.3241 30.765 25.4903 30.694C25.6565 30.6229 25.8347 30.5864 26.0146 30.5864C26.1945 30.5864 26.3727 30.6229 26.5389 30.694C26.7051 30.765 26.8561 30.8691 26.9834 31.0004L30.1196 34.239L37.3607 26.7651C37.4878 26.6336 37.6388 26.5293 37.8051 26.4581C37.9713 26.387 38.1495 26.3503 38.3295 26.3503C38.5095 26.3503 38.6877 26.387 38.854 26.4581C39.0202 26.5293 39.1712 26.6336 39.2983 26.7651Z" fill="black"/>
</g>
<defs>
<clipPath id="clip0_8_133">
<rect width="43.7864" height="45.1765" fill="white" transform="translate(9.59277 9.41187)"/>
</clipPath>
</defs>
</svg>
