<svg width="188" height="155" viewBox="0 0 188 155" fill="none" xmlns="http://www.w3.org/2000/svg">
<g filter="url(#filter0_dd_49_128)">
<path d="M111.04 146.669L86.8597 110.015L119.157 104.246L111.04 146.669Z" fill="#D38692"/>
<ellipse cx="32.4211" cy="56.4153" rx="28.4211" ry="26.2087" fill="#7DAEA3"/>
<ellipse cx="65.5788" cy="77.7378" rx="28.4211" ry="26.2087" fill="#D38692"/>
<ellipse cx="43.7892" cy="37.7583" rx="28.4211" ry="26.2087" fill="#FABB1E"/>
<ellipse cx="72.2106" cy="26.2087" rx="28.4211" ry="26.2087" fill="#D38692"/>
<ellipse cx="92.1051" cy="26.2087" rx="28.4211" ry="26.2087" fill="#7DAEA3"/>
<ellipse cx="85.4738" cy="41.312" rx="28.4211" ry="26.2087" fill="#D38692"/>
<ellipse cx="127.158" cy="33.3161" rx="28.4211" ry="26.2087" fill="#7DAEA3"/>
<ellipse cx="148.947" cy="52.8616" rx="28.4211" ry="26.2087" fill="#FABB1E"/>
<ellipse cx="103.474" cy="48.4194" rx="28.4211" ry="26.2087" fill="#D38692"/>
<ellipse cx="155.579" cy="90.1758" rx="28.4211" ry="26.2087" fill="#7DAEA3"/>
<ellipse cx="148.947" cy="93.7295" rx="28.4211" ry="26.2087" fill="#D38692"/>
<ellipse cx="132.842" cy="107.944" rx="28.4211" ry="26.2087" fill="#D38692"/>
<ellipse cx="122.421" cy="74.1841" rx="28.4211" ry="26.2087" fill="#7DAEA3"/>
<ellipse cx="92.1051" cy="87.5105" rx="28.4211" ry="26.2087" fill="#FABB1E"/>
</g>
<path d="M121.241 52.3535L142.108 73.1212L108.052 79.1657L121.241 52.3535Z" fill="#F0E8E8"/>
<path d="M94 120.336L96.8421 123.813C134.358 123.416 135.842 90.8576 131.895 74.6282L117.684 77.1123C124.505 105.332 104.737 117.686 94 120.336Z" fill="#F0E8E8" stroke="#F0E8E8"/>
<defs>
<filter id="filter0_dd_49_128" x="0" y="0" width="188" height="154.669" filterUnits="userSpaceOnUse" color-interpolation-filters="sRGB">
<feFlood flood-opacity="0" result="BackgroundImageFix"/>
<feColorMatrix in="SourceAlpha" type="matrix" values="0 0 0 0 0 0 0 0 0 0 0 0 0 0 0 0 0 0 127 0" result="hardAlpha"/>
<feOffset dy="4"/>
<feGaussianBlur stdDeviation="2"/>
<feComposite in2="hardAlpha" operator="out"/>
<feColorMatrix type="matrix" values="0 0 0 0 0 0 0 0 0 0 0 0 0 0 0 0 0 0 0.25 0"/>
<feBlend mode="normal" in2="BackgroundImageFix" result="effect1_dropShadow_49_128"/>
<feColorMatrix in="SourceAlpha" type="matrix" values="0 0 0 0 0 0 0 0 0 0 0 0 0 0 0 0 0 0 127 0" result="hardAlpha"/>
<feOffset dy="4"/>
<feGaussianBlur stdDeviation="2"/>
<feComposite in2="hardAlpha" operator="out"/>
<feColorMatrix type="matrix" values="0 0 0 0 0 0 0 0 0 0 0 0 0 0 0 0 0 0 0.25 0"/>
<feBlend mode="normal" in2="effect1_dropShadow_49_128" result="effect2_dropShadow_49_128"/>
<feBlend mode="normal" in="SourceGraphic" in2="effect2_dropShadow_49_128" result="shape"/>
</filter>
</defs>
</svg>
