<svg width="117" height="120" viewBox="0 0 117 120" fill="none" xmlns="http://www.w3.org/2000/svg">
<path d="M109.398 61.0362C117.012 51.1299 119.167 41.413 114.675 34.1208C114.635 34.1721 114.574 34.2234 114.513 34.2759C114.19 34.5335 113.869 34.7742 113.507 34.9811C114.796 37.2001 115.42 39.6936 115.42 42.3765C115.42 47.6735 112.983 53.6927 108.431 59.7994C104.141 54.4674 98.4599 49.3079 91.7522 44.6129C90.322 37.2689 87.9245 30.4756 84.6424 24.6277C85.5548 24.5936 86.4679 24.5763 87.3812 24.5759C91.0675 24.5759 94.5114 24.8848 97.6339 25.5044C97.7349 25.2298 97.8353 24.9372 97.9759 24.6621C98.0359 24.5415 98.0967 24.4208 98.1772 24.3008C93.9271 23.4241 89.1335 23.114 83.916 23.3729C77.3899 12.3118 68.1441 6 58.4955 6C48.524 6 39.4195 12.5012 33.015 23.3705C28.2617 23.1472 23.7889 23.3879 19.7408 24.1107C19.7811 24.197 19.8419 24.2827 19.8822 24.3683C20.0433 24.6941 20.2051 25.0217 20.3252 25.3481C23.991 24.6947 28.0391 24.454 32.3091 24.6259C29.1668 30.2838 26.7298 37.0426 25.2396 44.6111C18.31 49.478 12.6918 54.6544 8.5208 59.7976C8.37948 59.6251 8.23816 59.4362 8.11804 59.2643C1.18845 49.7531 -0.321545 40.9647 3.8078 34.4985C3.42885 34.2207 3.0785 33.9158 2.76063 33.5869C2.74014 33.5694 2.72035 33.535 2.69986 33.5181C-1.99335 40.4664 -0.522926 49.8394 6.82921 59.9346C7.07157 60.2784 7.3323 60.6054 7.59445 60.9493C-0.220503 71.1301 -2.27528 81.1402 2.69986 88.5012C7.15142 95.0706 16.8812 98.6995 29.7123 98.6995C30.7998 98.6995 31.9275 98.6651 33.0757 98.6133C33.5065 99.3787 33.9701 100.13 34.4656 100.867C34.5666 100.78 34.667 100.712 34.7885 100.625C35.0712 100.436 35.3729 100.247 35.6951 100.092C35.3524 99.5936 35.0309 99.0603 34.7087 98.527C42.2424 98.0112 50.3393 96.3774 58.4779 93.7976C66.6956 96.4287 74.7932 98.0455 82.2463 98.5614C76.0827 108.606 67.5619 114.711 58.4976 114.711C55.3957 114.711 52.334 114.04 49.3734 112.664C49.1105 112.956 48.8498 113.232 48.5466 113.49C48.4866 113.541 48.4258 113.61 48.3453 113.645C51.6083 115.21 55.0325 116 58.4969 116C68.4479 116 77.5524 109.499 83.957 98.6464C85.0649 98.7152 86.1729 98.7327 87.2413 98.7327C91.4102 98.7327 95.3389 98.3544 98.9036 97.5454L98.8436 97.4766C98.5767 97.1312 98.3409 96.769 98.1384 96.3931C94.1101 97.2353 89.5773 97.5454 84.7025 97.3391C87.8454 91.6981 90.2825 84.9562 91.7522 77.3883C98.6818 72.5208 104.321 67.3438 108.491 62.2018C108.633 62.3743 108.774 62.5626 108.894 62.7351C115.319 71.5748 117.093 79.7786 114.011 86.0735C114.433 86.3655 114.817 86.6756 115.159 87.0364C118.765 80.2606 117.032 71.4716 110.183 62.0636C109.935 61.7132 109.673 61.3699 109.397 61.0344M91.832 61C91.832 66.3489 91.3282 71.6122 90.3609 76.7029C85.7489 79.9535 80.6318 82.9284 75.1528 85.6289C69.8331 88.2612 64.276 90.5271 58.5344 92.4052C52.9346 90.6158 47.3143 88.3462 41.8354 85.6457C36.3565 82.9453 31.2605 79.9535 26.6478 76.7373C25.6812 71.6979 25.1767 66.4008 25.1767 61C25.1767 55.6511 25.6805 50.3878 26.6273 45.2977C31.3008 42.0465 36.4172 39.0372 41.8354 36.3543C47.2946 33.6707 52.8943 31.4011 58.4743 29.5954C64.0338 31.3842 69.6541 33.6538 75.1528 36.3543C80.6318 39.0547 85.7284 42.0465 90.3609 45.2633C91.3289 50.3021 91.832 55.6167 91.832 61ZM89.9786 43.3882C85.6479 40.4471 80.9349 37.7123 75.9188 35.2363C71.0117 32.82 65.9094 30.7049 60.6506 28.907C68.325 26.5686 75.9188 25.14 83.0088 24.7104C86.1524 30.1625 88.5089 36.5262 89.9786 43.3882ZM58.4955 7.28867C67.4184 7.28867 76.0403 13.1709 82.2845 23.4724C74.731 23.9713 66.6546 25.6051 58.5358 28.2023C50.3181 25.5876 42.2205 23.9713 34.7475 23.4555C40.9105 13.411 49.4313 7.28867 58.4955 7.28867ZM34.0014 24.711C40.9917 25.1237 48.6053 26.568 56.3602 28.9245C51.2232 30.6445 46.087 32.7772 41.0914 35.2363C36.1162 37.6954 31.4032 40.4127 27.0315 43.3713C28.5429 36.3368 30.9602 30.0249 34.0014 24.711ZM24.8771 46.5526C24.0716 51.2475 23.6688 56.0975 23.6688 60.9988C23.6688 65.9514 24.0716 70.8188 24.8976 75.4969C18.6937 70.957 13.4366 66.072 9.44715 61.0332C13.3151 56.1319 18.5128 51.1962 24.8771 46.5526ZM4.00989 87.8623C-0.503141 81.1547 1.4513 71.7817 8.56178 62.2024C12.872 67.5344 18.5531 72.7108 25.2608 77.4233C26.6909 84.7329 29.0877 91.5093 32.3501 97.3397C18.7537 97.8899 8.48123 94.4323 4.00989 87.8629M33.9816 97.2715C30.8591 91.82 28.5231 85.4907 27.0322 78.6456C31.3424 81.5686 36.0554 84.2865 41.0921 86.7631C46.128 89.2391 51.2437 91.3549 56.3199 93.0924C48.6661 95.4133 41.073 96.8413 33.9816 97.2715ZM82.9897 97.254C76.0007 96.8244 68.4062 95.397 60.6718 93.0749C65.7883 91.3374 70.9246 89.2047 75.9202 86.7456C80.9356 84.269 85.6493 81.5517 89.98 78.6112C88.4488 85.6276 86.0514 91.9395 82.9897 97.254ZM92.1147 75.4462C92.9334 70.6626 93.3441 65.8345 93.3434 61C93.3434 56.0631 92.9209 51.1968 92.1147 46.5188C98.3186 51.0243 103.555 55.9262 107.545 60.9481C103.697 65.8663 98.5002 70.8026 92.1147 75.4462Z" fill="white" fill-opacity="0.5"/>
<path d="M57.4389 47.4061L32.843 54.0979C32.5448 54.2012 32.2897 54.3778 32.1103 54.6051C31.9309 54.8323 31.8353 55.1 31.836 55.3737C31.8343 55.6477 31.9291 55.9159 32.1081 56.1438C32.2872 56.3717 32.5424 56.5488 32.8408 56.6525L39.9261 59.1285L57.3693 63.3213C57.5817 63.3986 57.8113 63.4349 58.0231 63.4349C58.2135 63.4349 58.3947 63.4059 58.5383 63.3485L76.1612 59.1019L83.1627 56.6519C83.4613 56.5481 83.7167 56.3708 83.8961 56.1429C84.0755 55.915 84.1707 55.6467 84.1697 55.3725C84.1675 54.8113 83.7724 54.3099 83.1037 54.0798L58.6129 47.4194C58.2235 47.2883 57.7786 47.2889 57.4389 47.4061Z" fill="white" fill-opacity="0.5"/>
<path d="M58.0157 64.7193C57.5854 64.7191 57.1591 64.6488 56.76 64.5121L39.5193 60.3622L39.3772 60.3103V69.5572C39.3774 70.9136 40.0113 72.2143 41.1396 73.1734C42.2678 74.1325 43.798 74.6715 45.3937 74.6718H70.6164C72.2121 74.6717 73.7424 74.1327 74.8707 73.1736C75.999 72.2144 76.6329 70.9136 76.6329 69.5572V60.3115L59.0284 64.5653C58.7052 64.6702 58.3616 64.7224 58.0157 64.7193ZM9.80097 35.3807C14.6335 35.3807 18.5648 32.0384 18.5648 27.9314C18.5654 26.8701 18.2988 25.8209 17.7831 24.8543C17.0833 23.554 15.9592 22.4518 14.5443 21.6784C13.1295 20.905 11.4832 20.4929 9.80097 20.4912C4.96848 20.4912 1.03711 23.8304 1.03711 27.9326C1.03711 29.682 1.77264 31.3866 3.10371 32.7258C3.92215 33.5593 4.94654 34.2292 6.10405 34.6881C7.26156 35.1469 8.52377 35.3834 9.80097 35.3807ZM107.221 35.3849C109.488 35.3849 111.64 34.6462 113.279 33.3069C114.136 32.6144 114.818 31.7802 115.282 30.8554C115.747 29.9307 115.984 28.935 115.979 27.9296C115.979 26.8755 115.717 25.8438 115.201 24.8592C113.778 22.2031 110.644 20.4864 107.221 20.4864C105.483 20.482 103.783 20.9179 102.337 21.7384C100.892 22.5588 99.7667 23.7267 99.1053 25.0929C98.6733 25.9936 98.451 26.9569 98.4508 27.9296C98.4508 29.6892 99.1878 31.3921 100.52 32.7198C101.336 33.5564 102.361 34.2292 103.519 34.6899C104.678 35.1507 105.942 35.388 107.221 35.3849ZM48.5795 104.407C47.1653 101.757 44.0335 100.044 40.5974 100.044C38.6054 100.044 36.6554 100.627 35.1054 101.684C33.031 103.115 31.84 105.228 31.84 107.477C31.84 109.222 32.5719 110.929 33.8987 112.281C34.7183 113.114 35.7434 113.783 36.9012 114.241C38.059 114.699 39.3211 114.934 40.5981 114.931C42.9639 114.931 45.2565 114.105 46.8924 112.663C48.4854 111.277 49.3751 109.414 49.3705 107.477C49.371 106.417 49.1014 105.37 48.5803 104.408M107.216 85.3395C102.384 85.3395 98.4522 88.6824 98.4522 92.7888C98.4522 94.2271 98.9362 95.6273 99.8544 96.8354C99.8752 96.8629 99.8987 96.8887 99.9247 96.9127C100.721 97.9367 101.805 98.7765 103.077 99.3569C104.35 99.9373 105.772 100.24 107.216 100.238C112.048 100.238 115.98 96.8964 115.98 92.7888C115.98 91.0322 115.244 89.3263 113.911 87.9823C113.089 87.154 112.064 86.4883 110.907 86.0319C109.751 85.5754 108.491 85.3391 107.216 85.3395Z" fill="white" fill-opacity="0.5"/>
</svg>
