<svg width="25" height="24" viewBox="0 0 25 24" fill="none" xmlns="http://www.w3.org/2000/svg">
<g clip-path="url(#clip0_1_598)">
<path fill-rule="evenodd" clip-rule="evenodd" d="M24.5 12C24.5 15.1826 23.2357 18.2348 20.9853 20.4853C18.7348 22.7357 15.6826 24 12.5 24C9.3174 24 6.26516 22.7357 4.01472 20.4853C1.76428 18.2348 0.5 15.1826 0.5 12C0.5 8.8174 1.76428 5.76516 4.01472 3.51472C6.26516 1.26428 9.3174 0 12.5 0C15.6826 0 18.7348 1.26428 20.9853 3.51472C23.2357 5.76516 24.5 8.8174 24.5 12ZM8.531 6.969C8.39017 6.82817 8.19916 6.74905 8 6.74905C7.80084 6.74905 7.60983 6.82817 7.469 6.969C7.32817 7.10983 7.24905 7.30084 7.24905 7.5C7.24905 7.69916 7.32817 7.89017 7.469 8.031L11.4395 12L7.469 15.969C7.39927 16.0387 7.34395 16.1215 7.30621 16.2126C7.26848 16.3037 7.24905 16.4014 7.24905 16.5C7.24905 16.5986 7.26848 16.6963 7.30621 16.7874C7.34395 16.8785 7.39927 16.9613 7.469 17.031C7.60983 17.1718 7.80084 17.2509 8 17.2509C8.09862 17.2509 8.19627 17.2315 8.28738 17.1938C8.37848 17.156 8.46127 17.1007 8.531 17.031L12.5 13.0605L16.469 17.031C16.5387 17.1007 16.6215 17.156 16.7126 17.1938C16.8037 17.2315 16.9014 17.2509 17 17.2509C17.0986 17.2509 17.1963 17.2315 17.2874 17.1938C17.3785 17.156 17.4613 17.1007 17.531 17.031C17.6007 16.9613 17.656 16.8785 17.6938 16.7874C17.7315 16.6963 17.7509 16.5986 17.7509 16.5C17.7509 16.4014 17.7315 16.3037 17.6938 16.2126C17.656 16.1215 17.6007 16.0387 17.531 15.969L13.5605 12L17.531 8.031C17.6007 7.96127 17.656 7.87848 17.6938 7.78738C17.7315 7.69627 17.7509 7.59862 17.7509 7.5C17.7509 7.40138 17.7315 7.30373 17.6938 7.21262C17.656 7.12152 17.6007 7.03873 17.531 6.969C17.4613 6.89927 17.3785 6.84395 17.2874 6.80621C17.1963 6.76848 17.0986 6.74905 17 6.74905C16.9014 6.74905 16.8037 6.76848 16.7126 6.80621C16.6215 6.84395 16.5387 6.89927 16.469 6.969L12.5 10.9395L8.531 6.969Z" fill="#F25553"/>
</g>
<defs>
<clipPath id="clip0_1_598">
<rect width="24" height="24" fill="white" transform="translate(0.5)"/>
</clipPath>
</defs>
</svg>
